<svg height="56" viewBox="0 0 56 56" width="56" xmlns="http://www.w3.org/2000/svg" xmlns:xlink="http://www.w3.org/1999/xlink"><defs><path id="a" d="m20.582 19.331v.359h-1.288v-5.31c0-.76-.627-1.388-1.388-1.388h-7.886c-.762 0-1.39.627-1.39 1.389v5.309h-1.31v-18.044a.42.42 0 0 1 .415-.414h.347a.42.42 0 0 1 .415.414v6.575a2.677 2.677 0 0 0 2.676 2.677h5.556a2.677 2.677 0 0 0 2.676-2.677v-6.575a.42.42 0 0 1 .415-.414h.347a.42.42 0 0 1 .414.414v17.685zm-3.617-4.031h1.097v-1.064h-1.097zm0 1.355h1.097v-1.041h-1.097zm0 1.367h1.097v-1.042h-1.097zm0 1.299h1.086v-.974h-1.086zm-1.435-4.021h1.098v-1.065h-1.098zm0 1.354h1.098v-1.041h-1.098zm0 1.367h1.098v-1.042h-1.098zm0 1.288h1.098v-.963h-1.098zm-1.422-4.01h1.097v-1.075h-1.095v1.075zm0 1.355h1.097v-1.041h-1.095v1.041zm0 1.367h1.097v-1.042h-1.095v1.042zm0 1.288h1.097v-.963h-1.095v.963zm-1.423-4.01h1.087v-1.075h-1.087zm0 1.355h1.087v-1.041h-1.087zm0 1.367h1.087v-1.042h-1.087zm0 1.288h1.087v-.963h-1.087zm-1.422-4.01h1.098v-1.075h-1.098zm0 1.355h1.098v-1.041h-1.098zm0 1.367h1.098v-1.042h-1.098zm0 1.288h1.098v-.952h-1.098zm-1.4-4.01h1.064v-1.075h-1.063v1.075zm0 1.355h1.064v-1.041h-1.063v1.041zm1.064 1.367h-1.063v-1.042h1.075v1.042h-.011zm-1.075 1.277h1.075v-.952h-1.074v.952zm13.675.033h-1.714v-17.685a1.65 1.65 0 0 0 -1.645-1.646h-.347a1.65 1.65 0 0 0 -1.647 1.646v6.575c0 .795-.65 1.445-1.444 1.445h-5.556c-.795 0-1.444-.65-1.444-1.445v-6.575a1.65 1.65 0 0 0 -1.647-1.646h-.347a1.65 1.65 0 0 0 -1.646 1.646v17.685h-1.68c-.796 0-1.445.65-1.445 1.445v7.202h22.008v-7.202c0-.795-.65-1.445-1.445-1.445z"/><mask id="b" fill="#fff"><path d="m0 0h28v28h-28z" fill="#fff" fill-rule="evenodd"/></mask><mask id="c" fill="#fff"><use fill="#fff" fill-rule="evenodd" xlink:href="#a"/></mask></defs><g fill="none" fill-rule="evenodd"><circle cx="28" cy="28" fill="#4a556b" r="28"/><g fill="#fff" mask="url(#b)" transform="translate(14 14)"><use xlink:href="#a"/><g mask="url(#c)"><path d="m0 0h28v28h-28z"/></g></g></g></svg>