<svg width="678" height="291" viewBox="0 0 678 291" fill="none" xmlns="http://www.w3.org/2000/svg">
<rect x="171" y="112" width="53" height="167" fill="#713BDB" fill-opacity="0.3"/>
<rect x="98" y="17" width="73" height="260" fill="#713BDB" fill-opacity="0.3"/>
<rect x="422" y="81" width="70" height="198" fill="#713BDB" fill-opacity="0.3"/>
<rect x="492" y="107" width="84" height="172" fill="#713BDB" fill-opacity="0.3"/>
<rect x="576" y="17" width="70" height="262" fill="#713BDB" fill-opacity="0.3"/>
<path d="M1.39379 279C0.619463 279 0 278.556 0 278C0 277.444 0.619463 277 1.39379 277H676.606C677.381 277 678 277.444 678 278C678 278.556 677.381 279 676.606 279H1.39379Z" fill="#20154E"/>
<path fill-rule="evenodd" clip-rule="evenodd" d="M109.152 119.521H172V277H53.3864V237.888H43.9849V276.743H39.9924V237.888H36V215.629H53.3864V110H109.152V119.521Z" fill="white"/>
<path d="M88.8485 204.678C89.4882 204.678 90 205.194 90 205.839C90 206.484 89.4882 207 88.8485 207H73.2391C72.5993 207 72.0875 206.484 72.0875 205.839C72.0875 205.194 72.5993 204.678 73.2391 204.678H88.8485ZM58.7811 137.348C59.4209 137.348 59.9327 137.864 59.9327 138.509C59.9327 139.154 59.4209 139.67 58.7811 139.67H53.1515C52.5118 139.67 52 139.154 52 138.509C52 137.864 52.5118 137.348 53.1515 137.348H58.7811ZM58.7811 146.893C59.4209 146.893 59.9327 147.409 59.9327 148.054C59.9327 148.699 59.4209 149.214 58.7811 149.214H53.1515C52.5118 149.214 52 148.699 52 148.054C52 147.409 52.5118 146.893 53.1515 146.893H58.7811ZM58.7811 156.567C59.4209 156.567 59.9327 157.083 59.9327 157.728C59.9327 158.372 59.4209 158.888 58.7811 158.888H53.1515C52.5118 158.888 52 158.372 52 157.728C52 157.083 52.5118 156.567 53.1515 156.567H58.7811ZM58.7811 166.241C59.4209 166.241 59.9327 166.757 59.9327 167.401C59.9327 168.046 59.4209 168.562 58.7811 168.562H53.1515C52.5118 168.562 52 168.046 52 167.401C52 166.757 52.5118 166.241 53.1515 166.241H58.7811ZM58.7811 175.786C59.4209 175.786 59.9327 176.301 59.9327 176.946C59.9327 177.591 59.4209 178.107 58.7811 178.107H53.1515C52.5118 178.107 52 177.591 52 176.946C52 176.301 52.5118 175.786 53.1515 175.786H58.7811ZM58.7811 185.459C59.4209 185.459 59.9327 185.975 59.9327 186.62C59.9327 187.265 59.4209 187.781 58.7811 187.781H53.1515C52.5118 187.781 52 187.265 52 186.62C52 185.975 52.5118 185.459 53.1515 185.459H58.7811ZM58.7811 195.133C59.4209 195.133 59.9327 195.649 59.9327 196.294C59.9327 196.939 59.4209 197.455 58.7811 197.455H53.1515C52.5118 197.455 52 196.939 52 196.294C52 195.649 52.5118 195.133 53.1515 195.133H58.7811ZM58.7811 204.678C59.4209 204.678 59.9327 205.194 59.9327 205.839C59.9327 206.484 59.4209 207 58.7811 207H53.1515C52.5118 207 52 206.484 52 205.839C52 205.194 52.5118 204.678 53.1515 204.678H58.7811ZM88.8485 118C89.4882 118 90 118.516 90 119.161C90 119.806 89.4882 120.322 88.8485 120.322H53.1515C52.5118 120.322 52 119.806 52 119.161C52 118.516 52.5118 118 53.1515 118H88.8485ZM88.8485 127.674C89.4882 127.674 90 128.19 90 128.835C90 129.48 89.4882 129.996 88.8485 129.996H53.1515C52.5118 129.996 52 129.48 52 128.835C52 128.19 52.5118 127.674 53.1515 127.674H88.8485ZM88.8485 137.348C89.4882 137.348 90 137.864 90 138.509C90 139.154 89.4882 139.67 88.8485 139.67H73.2391C72.5993 139.67 72.0875 139.154 72.0875 138.509C72.0875 137.864 72.5993 137.348 73.2391 137.348H88.8485ZM88.8485 146.893C89.4882 146.893 90 147.409 90 148.054C90 148.699 89.4882 149.214 88.8485 149.214H73.2391C72.5993 149.214 72.0875 148.699 72.0875 148.054C72.0875 147.409 72.5993 146.893 73.2391 146.893H88.8485ZM88.8485 156.567C89.4882 156.567 90 157.083 90 157.728C90 158.372 89.4882 158.888 88.8485 158.888H73.2391C72.5993 158.888 72.0875 158.372 72.0875 157.728C72.0875 157.083 72.5993 156.567 73.2391 156.567H88.8485ZM88.8485 166.241C89.4882 166.241 90 166.757 90 167.401C90 168.046 89.4882 168.562 88.8485 168.562H73.2391C72.5993 168.562 72.0875 168.046 72.0875 167.401C72.0875 166.757 72.5993 166.241 73.2391 166.241H88.8485ZM88.8485 175.786C89.4882 175.786 90 176.301 90 176.946C90 177.591 89.4882 178.107 88.8485 178.107H73.2391C72.5993 178.107 72.0875 177.591 72.0875 176.946C72.0875 176.301 72.5993 175.786 73.2391 175.786H88.8485ZM88.8485 185.459C89.4882 185.459 90 185.975 90 186.62C90 187.265 89.4882 187.781 88.8485 187.781H73.2391C72.5993 187.781 72.0875 187.265 72.0875 186.62C72.0875 185.975 72.5993 185.459 73.2391 185.459H88.8485ZM88.8485 195.133C89.4882 195.133 90 195.649 90 196.294C90 196.939 89.4882 197.455 88.8485 197.455H73.2391C72.5993 197.455 72.0875 196.939 72.0875 196.294C72.0875 195.649 72.5993 195.133 73.2391 195.133H88.8485Z" fill="#20154E"/>
<path fill-rule="evenodd" clip-rule="evenodd" d="M156 238V244.799H73.1634H69.5H65.5H61.8616H53V238H156Z" fill="#713BDB"/>
<path fill-rule="evenodd" clip-rule="evenodd" d="M112 215.679L156 190V202.191L112 228V215.679Z" fill="white" fill-opacity="0.3"/>
<path fill-rule="evenodd" clip-rule="evenodd" d="M112 231.232L156 205V212.118L119.291 234H112V231.232Z" fill="white" fill-opacity="0.3"/>
<path fill-rule="evenodd" clip-rule="evenodd" d="M62 143H73V216H62V143Z" fill="#FFD87A"/>
<path fill-rule="evenodd" clip-rule="evenodd" d="M112 143H156V234H112V143Z" fill="#FFD87A"/>
<rect x="62" y="247" width="10" height="30" fill="#FFD87A"/>
<path d="M59.6257 276.844C59.6257 277.486 59.108 278 58.4609 278C57.8138 278 57.2961 277.486 57.2961 276.844V272.606V247.565V238.96H53.9311V276.844C53.9311 277.486 53.4134 278 52.7663 278C52.1192 278 51.6015 277.486 51.6015 276.844V238.96H44.4832V276.844C44.4832 277.486 43.9656 278 43.3185 278C42.6713 278 42.1537 277.486 42.1537 276.844V238.96H40.4711V276.844C40.4711 277.486 39.9535 278 39.3063 278C38.6592 278 38.1415 277.486 38.1415 276.844V238.96H35.1648C34.5177 238.96 34 238.447 34 237.805V215.588C34 214.946 34.5177 214.432 35.1648 214.432H51.6015V110.156C51.6015 109.514 52.1192 109 52.7663 109H108.806C109.453 109 109.971 109.514 109.971 110.156V118.631H171.835C172.482 118.631 173 119.145 173 119.787V276.844C173 277.486 172.482 278 171.835 278C171.188 278 170.67 277.486 170.67 276.844V120.815H108.806H94.4404V215.588C94.4404 216.23 93.9227 216.744 93.2756 216.744H73.0857H58.4609H52.7663H36.3296V236.649H39.3063H43.189H52.6369H58.3315H72.9562H108.677H156.304C156.952 236.649 157.469 237.163 157.469 237.805V247.565V267.084V276.844C157.469 277.486 156.952 278 156.304 278C155.657 278 155.14 277.486 155.14 276.844V268.24H109.712V276.844C109.712 277.486 109.195 278 108.548 278C107.9 278 107.383 277.486 107.383 276.844V267.084V257.324V247.565V238.96H74.2505V247.565V272.606V276.844C74.2505 277.486 73.7328 278 73.0857 278C72.4386 278 71.9209 277.486 71.9209 276.844V273.762H59.6257V276.844ZM156.563 234.723H146.986H118.513H108.936C108.289 234.723 107.771 234.209 107.771 233.567V186.822V177.191V138.793C107.771 138.151 108.289 137.638 108.936 137.638H118.513H146.986H156.563C157.21 137.638 157.728 138.151 157.728 138.793V186.694V215.46V233.438C157.728 234.209 157.21 234.723 156.563 234.723ZM109.971 232.411H117.219V187.978H109.971V232.411ZM119.678 232.411H145.821V215.588V187.978H119.678V232.411ZM148.021 232.411H155.269V216.744H148.021V232.411ZM155.399 214.432V187.978H148.021V214.432H155.399ZM155.399 185.666V140.078H148.021V177.319V185.795H155.399V185.666ZM145.821 140.078H119.678V176.035H145.821V140.078ZM117.348 140.078H110.101V176.035H117.348V140.078ZM109.971 178.347V185.666H117.219V178.347H109.971ZM145.821 178.347H119.678V185.666H145.821V178.347ZM57.2961 214.432V177.191V138.793C57.2961 138.151 57.8138 137.638 58.4609 137.638H73.0857C73.7328 137.638 74.2505 138.151 74.2505 138.793V177.191V214.432H92.1108V119.659C92.1108 119.017 92.6285 118.503 93.2756 118.503H107.642V111.183H53.9311V214.304H57.2961V214.432ZM71.9209 214.432V178.347H59.6257V214.432H71.9209ZM71.9209 176.035V140.078H59.6257V176.035H71.9209ZM155.399 265.929V258.48H109.971V265.929H155.399ZM155.399 256.169V248.72H109.971V256.169H155.399ZM155.399 246.409V238.96H109.971V246.409H155.399ZM59.6257 238.96V246.409H71.9209V238.96H59.6257ZM71.9209 271.451V248.72H59.6257V271.451H71.9209Z" fill="#20154E"/>
<path fill-rule="evenodd" clip-rule="evenodd" d="M587.681 250.553H590V254.939H587.681V277H471.32V254.939H469V250.553H471.32V198.175H469V192.241H471.32V149.28H469V143.346H471.32V92H479.824V99.0955H542.579L547.605 92L552.502 99.0955H579.047V92H587.681V143.346H590V149.28H587.681V192.241H590V198.175H587.681V250.553Z" fill="#F5F6FA"/>
<path fill-rule="evenodd" clip-rule="evenodd" d="M533 239.601L566 221V227.787L537.349 244H533V239.601Z" fill="white" fill-opacity="0.3"/>
<path fill-rule="evenodd" clip-rule="evenodd" d="M579 255.312H581.526V251H587V255.312H584.474V277H579V255.312Z" fill="#713BDB"/>
<path fill-rule="evenodd" clip-rule="evenodd" d="M471 153.651H524.182V157.206H471V153.651ZM571.267 153.651H579.439V149.841H581.774V144H586.833V149.841H584.498V153.651H588V157.206H584.498V192H579.439V157.206H572.824L571.267 153.651Z" fill="#713BDB"/>
<path fill-rule="evenodd" clip-rule="evenodd" d="M471 202.752H579.319V198.903H581.651V193H586.704V198.903H584.372V202.752H588V206.345H584.372V251H579.319V206.345H471V202.752Z" fill="#713BDB"/>
<path fill-rule="evenodd" clip-rule="evenodd" d="M508 120L516 138.551V144H508V120Z" fill="#713BDB"/>
<path fill-rule="evenodd" clip-rule="evenodd" d="M516 251L524 269.01V277H516V251Z" fill="#713BDB"/>
<path d="M571 123.127C571 123.778 570.483 124.299 569.837 124.299C569.191 124.299 568.675 123.778 568.675 123.127V99.1717C568.675 98.5208 569.191 98 569.837 98C570.483 98 571 98.5208 571 99.1717V123.127ZM488.325 143.828C488.325 144.479 487.809 145 487.163 145C486.517 145 486 144.479 486 143.828V99.1717C486 98.5208 486.517 98 487.163 98C487.809 98 488.325 98.5208 488.325 99.1717V143.828ZM498.143 119.742C498.143 120.393 497.626 120.914 496.98 120.914C496.334 120.914 495.818 120.393 495.818 119.742V99.1717C495.818 98.5208 496.334 98 496.98 98C497.626 98 498.143 98.5208 498.143 99.1717V119.742ZM505.506 99.1717C505.506 98.5208 506.023 98 506.669 98C507.315 98 507.831 98.5208 507.831 99.1717V119.873C507.831 120.524 507.315 121.044 506.669 121.044C506.023 121.044 505.506 120.524 505.506 119.873V99.1717ZM517.52 136.798C517.52 137.449 517.003 137.97 516.357 137.97C515.711 137.97 515.195 137.449 515.195 136.798V99.1717C515.195 98.5208 515.711 98 516.357 98C517.003 98 517.52 98.5208 517.52 99.1717V136.798ZM527.208 123.127C527.208 123.778 526.691 124.299 526.046 124.299C525.4 124.299 524.883 123.778 524.883 123.127V99.1717C524.883 98.5208 525.4 98 526.046 98C526.691 98 527.208 98.5208 527.208 99.1717V123.127ZM536.897 109.327C536.897 109.978 536.38 110.499 535.734 110.499C535.088 110.499 534.571 109.978 534.571 109.327V99.1717C534.571 98.5208 535.088 98 535.734 98C536.38 98 536.897 98.5208 536.897 99.1717V109.327ZM561.312 109.327C561.312 109.978 560.795 110.499 560.149 110.499C559.503 110.499 558.986 109.978 558.986 109.327V99.1717C558.986 98.5208 559.503 98 560.149 98C560.795 98 561.312 98.5208 561.312 99.1717V109.327Z" fill="#20154E"/>
<path d="M472.637 276.842C472.637 277.485 472.121 278 471.478 278C470.834 278 470.318 277.485 470.318 276.842V255.864H469.159C468.515 255.864 468 255.349 468 254.705V250.33C468 249.686 468.515 249.171 469.159 249.171H470.318V201.939V199.236H469.159C468.515 199.236 468 198.721 468 198.078V192.158C468 191.514 468.515 190.999 469.159 190.999H470.318V150.459H469.159C468.515 150.459 468 149.944 468 149.301V143.381C468 142.737 468.515 142.222 469.159 142.222H470.318V136.431V92.287C470.318 91.6435 470.834 91.1287 471.478 91.1287H479.978C480.622 91.1287 481.137 91.6435 481.137 92.287V98.0785H542.058L546.694 91.5148C547.081 91 547.725 90.8713 548.24 91.2574C548.369 91.3861 548.497 91.3861 548.497 91.5148L553.134 97.9498H577.863V92.1583C577.863 91.5148 578.378 91 579.022 91H587.522C588.166 91 588.682 91.5148 588.682 92.1583V136.302V142.094H589.841C590.485 142.094 591 142.608 591 143.252V149.172C591 149.816 590.485 150.33 589.841 150.33H588.682V153.033V190.871H589.841C590.485 190.871 591 191.385 591 192.029V197.949C591 198.593 590.485 199.107 589.841 199.107H588.682V201.81V249.043H589.841C590.485 249.043 591 249.557 591 250.201V254.577C591 255.22 590.485 255.735 589.841 255.735H588.682V276.713C588.682 277.357 588.166 277.871 587.522 277.871C586.879 277.871 586.363 277.357 586.363 276.713V255.735H581.34H580.181V276.713C580.181 277.357 579.666 277.871 579.022 277.871C578.378 277.871 577.863 277.357 577.863 276.713V255.735H517.071V276.713C517.071 277.357 516.556 277.871 515.912 277.871C515.268 277.871 514.753 277.357 514.753 276.713V254.577V251.359H510.76V254.577V259.21V263.586V268.09V272.595V276.842C510.76 277.485 510.245 278 509.601 278C508.957 278 508.442 277.485 508.442 276.842V273.753H487.191V276.842C487.191 277.485 486.675 278 486.031 278C485.387 278 484.872 277.485 484.872 276.842V272.595V268.09V263.586V259.21V254.577V251.359H480.88V254.577V276.713C480.88 277.357 480.364 277.871 479.72 277.871C479.076 277.871 478.561 277.357 478.561 276.713V255.735H472.379V276.842H472.637ZM554.937 100.524L578.12 132.956V100.524H554.937ZM551.846 100.009L551.717 99.8802L547.725 94.2175L543.732 99.8802C543.732 99.8802 543.732 100.009 543.603 100.009L517.329 136.817V142.351H526.602C527.246 142.351 527.761 142.866 527.761 143.509V149.429C527.761 150.073 527.246 150.588 526.602 150.588H525.443V153.29C525.443 153.934 524.928 154.449 524.284 154.449H517.329V191.128H531.496V161.012C531.496 160.369 532.012 159.854 532.656 159.854H544.634C545.277 159.854 545.793 160.369 545.793 161.012V182.248V191.257H549.528V161.141C549.528 160.498 550.043 159.983 550.687 159.983H562.665C563.309 159.983 563.824 160.498 563.824 161.141V182.376V191.385H577.992V154.706H571.037C570.393 154.706 569.877 154.191 569.877 153.548V150.845H568.718C568.074 150.845 567.559 150.33 567.559 149.687V143.767C567.559 143.123 568.074 142.608 568.718 142.608H577.992V137.074L551.846 100.009ZM481.137 100.524V136.56V142.351H486.547V119.7C486.547 119.056 487.062 118.542 487.706 118.542H508.442C509.086 118.542 509.601 119.056 509.601 119.7V142.351H513.851H515.01V136.56C515.01 136.302 515.139 136.045 515.268 135.787L540.512 100.524H481.137ZM580.31 135.401H586.492V93.4453H580.31V99.2367V135.401ZM586.621 137.718H580.439V142.48H581.598H586.621V137.718ZM472.637 135.401H478.819V99.3655V93.574H472.637V135.401ZM478.819 137.718H472.637V142.48H478.819V137.718ZM490.926 142.351V124.591C490.926 123.947 491.441 123.432 492.085 123.432H504.063C504.707 123.432 505.222 123.947 505.222 124.591V142.351H507.283V120.858H488.865V142.351H490.926ZM502.904 142.351V125.749H493.244V142.351H502.904ZM555.066 150.588H540.254C539.61 150.588 539.095 150.073 539.095 149.429V143.509C539.095 142.866 539.61 142.351 540.254 142.351H542.058V124.076C542.058 122.531 542.702 121.244 543.732 120.215C544.762 119.185 546.179 118.542 547.596 118.542C549.141 118.542 550.558 119.185 551.46 120.215C551.46 120.215 551.46 120.215 551.588 120.343C552.49 121.373 553.134 122.66 553.134 124.204V142.48H554.937C555.581 142.48 556.096 142.994 556.096 143.638V149.558C556.225 150.073 555.71 150.588 555.066 150.588ZM544.505 142.351H550.944V124.076C550.944 123.175 550.558 122.403 550.043 121.888C549.399 121.244 548.626 120.987 547.725 120.987C546.823 120.987 546.05 121.373 545.406 121.888C544.762 122.531 544.505 123.303 544.505 124.204V142.351ZM541.414 148.271H553.907V144.668H552.104H543.346H541.414V148.271ZM542.186 124.076C542.186 123.432 542.702 122.917 543.346 122.917L542.186 124.076ZM523.125 152.132V150.588H513.851H472.637V152.132H516.17H523.125ZM515.01 154.449H472.637V191.128H490.926V161.012C490.926 160.369 491.441 159.854 492.085 159.854H504.063C504.707 159.854 505.222 160.369 505.222 161.012V182.248V191.257H513.851H515.01V154.449ZM572.196 150.588V152.132H579.151H586.492V150.588H581.469H572.196ZM586.621 154.449H580.439V191.128H581.598H586.621V154.449ZM580.31 148.271V144.668H579.151H569.877V148.271H571.037H580.31ZM582.628 144.668V148.271H587.651H588.81V144.668H587.78H582.628ZM512.692 148.271V144.668H508.442H504.063H492.085H487.706H479.978H471.478H470.318V148.271H471.478H512.692ZM515.01 144.668V148.271H524.284H525.443V144.668H516.17H515.01ZM561.506 183.277H551.846V191.128H561.506V183.277ZM551.846 181.089H561.506V162.171H551.846V181.089ZM543.474 183.277H533.815V191.128H543.474V183.277ZM533.815 181.089H543.474V162.171H533.815V181.089ZM502.904 183.277H493.244V191.128H502.904V183.277ZM493.244 181.089H502.904V162.171H493.244V181.089ZM512.692 197.048V193.445H504.063H492.085H471.478H470.318V197.048H471.478H512.692ZM515.01 193.445V197.048H580.439V193.445H579.28H562.794H550.816H544.762H532.784H516.298H515.01ZM582.628 193.445V197.048H587.651H588.81V193.445H587.78H582.628ZM472.637 199.365V200.909H516.17H579.28H586.621V199.365H581.598H513.851H472.637ZM529.436 211.591H540.254H555.066H565.885C566.529 211.591 567.044 212.106 567.044 212.75V233.985V244.023C567.044 244.667 566.529 245.182 565.885 245.182H555.066H540.254H529.436C528.792 245.182 528.276 244.667 528.276 244.023V212.75C528.276 212.106 528.792 211.591 529.436 211.591ZM539.095 242.865V235.014H530.595V242.865H539.095ZM539.095 232.827V213.908H530.595V232.827H539.095ZM541.414 213.908V232.827H553.907V213.908H541.414ZM541.414 235.143V242.994H553.907V235.143H541.414ZM556.225 213.908V232.827H564.726V213.908H556.225ZM556.225 235.143V242.994H564.726V235.143H556.225ZM488.35 213.908C489.638 212.235 491.054 210.948 492.729 210.176C494.403 209.275 496.206 208.889 498.138 208.889C499.941 208.889 501.873 209.275 503.548 210.176C505.093 210.948 506.639 212.235 507.927 213.908C508.184 214.165 508.184 214.423 508.184 214.68V249.3H509.859H515.01V203.226H472.637V249.3H479.978H486.289H488.092V214.68C488.092 214.294 488.092 214.036 488.35 213.908ZM505.737 215.066C504.707 213.779 503.548 212.878 502.388 212.235C500.972 211.463 499.555 211.205 498.009 211.205C496.464 211.205 495.047 211.591 493.63 212.235C492.342 212.878 491.183 213.779 490.153 215.066V249.3H505.608V215.066H505.737ZM586.621 203.226H580.439V249.3H581.598H586.621V203.226ZM517.329 203.226V249.3H578.12V203.226H517.329ZM553.907 267.061V260.626H541.414V267.061H553.907ZM556.225 260.626V267.061H564.726V260.626H556.225ZM529.436 258.309H540.254H555.066H565.885C566.529 258.309 567.044 258.824 567.044 259.467V268.219C567.044 268.862 566.529 269.377 565.885 269.377H555.066H540.254H529.436C528.792 269.377 528.276 268.862 528.276 268.219V259.467C528.276 258.824 528.792 258.309 529.436 258.309ZM539.095 260.626H530.595V267.061H539.095V260.626ZM580.31 253.676V251.617H579.151H517.2V253.676H579.151H580.31ZM582.628 251.617V253.676H587.651H588.81V251.617H587.78H582.628ZM508.699 251.617H507.025H487.577V253.676H508.828V251.617H508.699ZM508.699 255.992H487.448V258.309H508.699V255.992ZM508.699 260.626H487.448V262.685H508.699V260.626ZM508.699 264.873H487.448V267.061H508.699V264.873ZM508.699 269.377H487.448V271.565H508.699V269.377ZM478.819 251.617H471.478H470.318V253.676H471.478H478.819V251.617Z" fill="#20154E"/>
<path fill-rule="evenodd" clip-rule="evenodd" d="M449.5 242C456.415 242 462 247.585 462 254.5C462 261.415 456.415 267 449.5 267C442.586 267 437.001 261.415 437.001 254.5C436.934 247.585 442.586 242 449.5 242Z" fill="#713BDB"/>
<path fill-rule="evenodd" clip-rule="evenodd" d="M448 243C453.556 243 458 247.288 458 252.5C458 257.778 453.486 262 448 262C442.444 262 438 257.712 438 252.5C438 247.288 442.514 243 448 243Z" fill="white" fill-opacity="0.1"/>
<path d="M448.919 254.436C448.919 254.099 449.192 253.828 449.534 253.828C449.876 253.828 450.149 254.099 450.149 254.436V257.812L451.858 256.124C452.063 255.922 452.473 255.922 452.747 256.124C452.952 256.327 452.952 256.732 452.747 257.002L450.218 259.5V266.522C453.362 266.387 456.165 265.037 458.284 263.011C460.471 260.85 461.906 257.812 461.906 254.436C461.906 251.06 460.539 248.089 458.284 245.861C456.096 243.701 453.02 242.283 449.603 242.283C446.185 242.283 443.177 243.633 440.922 245.861C438.734 248.022 437.299 251.06 437.299 254.436C437.299 257.812 438.666 260.783 440.922 263.011C442.972 265.037 445.843 266.387 448.987 266.522V263.484L444.339 258.892C444.134 258.69 444.134 258.285 444.339 258.015C444.544 257.812 444.954 257.812 445.228 258.015L448.987 261.728V254.436H448.919ZM450.149 267.737V277.392C450.149 277.73 449.876 278 449.534 278C449.192 278 448.919 277.73 448.919 277.392V267.737C445.433 267.602 442.289 266.117 439.965 263.821C437.504 261.391 436 258.082 436 254.369C436 250.723 437.504 247.347 439.965 244.916C442.425 242.485 445.775 241 449.466 241C453.157 241 456.575 242.485 459.035 244.916C461.496 247.347 463 250.655 463 254.369C463 258.015 461.496 261.391 459.035 263.821C456.711 266.117 453.635 267.602 450.149 267.737Z" fill="#20154E"/>
<path fill-rule="evenodd" clip-rule="evenodd" d="M635.8 224.1C646.2 224.1 654.6 232.5 654.6 242.9C654.6 253.3 646.2 261.7 635.8 261.7C625.4 261.7 617 253.3 617 242.9C616.9 232.5 625.4 224.1 635.8 224.1Z" fill="#713BDB"/>
<path fill-rule="evenodd" clip-rule="evenodd" d="M633.7 226C641.7 226 648.1 232.5 648.1 240.4C648.1 248.4 641.6 254.8 633.7 254.8C625.7 254.8 619.3 248.3 619.3 240.4C619.3 232.5 625.8 226 633.7 226Z" fill="white" fill-opacity="0.1"/>
<path d="M634.9 242.9C634.9 242.4 635.3 242 635.8 242C636.3 242 636.7 242.4 636.7 242.9V247.9L639.2 245.4C639.5 245.1 640.1 245.1 640.5 245.4C640.8 245.7 640.8 246.3 640.5 246.7L636.8 250.4V260.8C641.4 260.6 645.5 258.6 648.6 255.6C651.8 252.4 653.9 247.9 653.9 242.9C653.9 237.9 651.9 233.5 648.6 230.2C645.4 227 640.9 224.9 635.9 224.9C630.9 224.9 626.5 226.9 623.2 230.2C620 233.4 617.9 237.9 617.9 242.9C617.9 247.9 619.9 252.3 623.2 255.6C626.2 258.6 630.4 260.6 635 260.8V256.3L628.2 249.5C627.9 249.2 627.9 248.6 628.2 248.2C628.5 247.9 629.1 247.9 629.5 248.2L635 253.7V242.9H634.9ZM636.7 262.6V276.9C636.7 277.4 636.3 277.8 635.8 277.8C635.3 277.8 634.9 277.4 634.9 276.9V262.6C629.8 262.4 625.2 260.2 621.8 256.8C618.2 253.2 616 248.3 616 242.8C616 237.4 618.2 232.4 621.8 228.8C625.4 225.2 630.3 223 635.7 223C641.1 223 646.1 225.2 649.7 228.8C653.3 232.4 655.5 237.3 655.5 242.8C655.5 248.2 653.3 253.2 649.7 256.8C646.3 260.2 641.8 262.4 636.7 262.6Z" fill="#20154E"/>
<path fill-rule="evenodd" clip-rule="evenodd" d="M198.8 224.1C209.2 224.1 217.6 232.5 217.6 242.9C217.6 253.3 209.2 261.7 198.8 261.7C188.4 261.7 180 253.3 180 242.9C179.9 232.5 188.4 224.1 198.8 224.1Z" fill="#713BDB"/>
<path fill-rule="evenodd" clip-rule="evenodd" d="M196.7 226C204.7 226 211.1 232.5 211.1 240.4C211.1 248.4 204.6 254.8 196.7 254.8C188.7 254.8 182.3 248.3 182.3 240.4C182.3 232.5 188.8 226 196.7 226Z" fill="white" fill-opacity="0.1"/>
<path d="M197.9 242.9C197.9 242.4 198.3 242 198.8 242C199.3 242 199.7 242.4 199.7 242.9V247.9L202.2 245.4C202.5 245.1 203.1 245.1 203.5 245.4C203.8 245.7 203.8 246.3 203.5 246.7L199.8 250.4V260.8C204.4 260.6 208.5 258.6 211.6 255.6C214.8 252.4 216.9 247.9 216.9 242.9C216.9 237.9 214.9 233.5 211.6 230.2C208.4 227 203.9 224.9 198.9 224.9C193.9 224.9 189.5 226.9 186.2 230.2C183 233.4 180.9 237.9 180.9 242.9C180.9 247.9 182.9 252.3 186.2 255.6C189.2 258.6 193.4 260.6 198 260.8V256.3L191.2 249.5C190.9 249.2 190.9 248.6 191.2 248.2C191.5 247.9 192.1 247.9 192.5 248.2L198 253.7V242.9H197.9ZM199.7 262.6V276.9C199.7 277.4 199.3 277.8 198.8 277.8C198.3 277.8 197.9 277.4 197.9 276.9V262.6C192.8 262.4 188.2 260.2 184.8 256.8C181.2 253.2 179 248.3 179 242.8C179 237.4 181.2 232.4 184.8 228.8C188.4 225.2 193.3 223 198.7 223C204.1 223 209.1 225.2 212.7 228.8C216.3 232.4 218.5 237.3 218.5 242.8C218.5 248.2 216.3 253.2 212.7 256.8C209.3 260.2 204.8 262.4 199.7 262.6Z" fill="#20154E"/>
<path fill-rule="evenodd" clip-rule="evenodd" d="M224.5 242C231.415 242 237 247.585 237 254.5C237 261.415 231.415 267 224.5 267C217.586 267 212.001 261.415 212.001 254.5C211.934 247.585 217.586 242 224.5 242Z" fill="#713BDB"/>
<path fill-rule="evenodd" clip-rule="evenodd" d="M223 243C228.556 243 233 247.288 233 252.5C233 257.778 228.486 262 223 262C217.444 262 213 257.712 213 252.5C213 247.288 217.514 243 223 243Z" fill="white" fill-opacity="0.1"/>
<path d="M223.919 254.436C223.919 254.099 224.192 253.828 224.534 253.828C224.876 253.828 225.149 254.099 225.149 254.436V257.812L226.858 256.124C227.063 255.922 227.473 255.922 227.747 256.124C227.952 256.327 227.952 256.732 227.747 257.002L225.218 259.5V266.522C228.362 266.387 231.165 265.037 233.284 263.011C235.471 260.85 236.906 257.812 236.906 254.436C236.906 251.06 235.539 248.089 233.284 245.861C231.096 243.701 228.02 242.283 224.603 242.283C221.185 242.283 218.177 243.633 215.922 245.861C213.734 248.022 212.299 251.06 212.299 254.436C212.299 257.812 213.666 260.783 215.922 263.011C217.972 265.037 220.843 266.387 223.987 266.522V263.484L219.339 258.892C219.134 258.69 219.134 258.285 219.339 258.015C219.544 257.812 219.954 257.812 220.228 258.015L223.987 261.728V254.436H223.919ZM225.149 267.737V277.392C225.149 277.73 224.876 278 224.534 278C224.192 278 223.919 277.73 223.919 277.392V267.737C220.433 267.602 217.289 266.117 214.965 263.821C212.504 261.391 211 258.082 211 254.369C211 250.723 212.504 247.347 214.965 244.916C217.425 242.485 220.775 241 224.466 241C228.157 241 231.575 242.485 234.035 244.916C236.496 247.347 238 250.655 238 254.369C238 258.015 236.496 261.391 234.035 263.821C231.711 266.117 228.635 267.602 225.149 267.737Z" fill="#20154E"/>
<path fill-rule="evenodd" clip-rule="evenodd" d="M242.9 90.4H236.5C231 87 224.2 79.7 224.2 71.7C224.2 61.4 232.6 53 242.9 53C253.2 53 261.6 61.4 261.6 71.7C261.6 79.7 254.8 87 249.3 90.4H242.9Z" fill="#713BDB"/>
<path fill-rule="evenodd" clip-rule="evenodd" d="M242.9 90.4H237.7C233.3 87 227.7 79.7 227.7 71.7C227.7 61.4 234.5 53 242.9 53C251.3 53 258.1 61.4 258.1 71.7C258.1 79.7 252.6 87 248.1 90.4H242.9Z" fill="white"/>
<path fill-rule="evenodd" clip-rule="evenodd" d="M242.9 90.4H239.2C236.1 87 232.2 79.7 232.2 71.7C232.2 61.4 237 53 242.9 53C248.8 53 253.6 61.4 253.6 71.7C253.6 79.7 249.7 87 246.6 90.4H242.9Z" fill="#713BDB"/>
<path fill-rule="evenodd" clip-rule="evenodd" d="M247.4 101V106.8C247.4 107.4 246.9 107.9 246.3 107.9H239.5C238.9 107.9 238.4 107.4 238.4 106.8V101H247.4Z" fill="white"/>
<path fill-rule="evenodd" clip-rule="evenodd" d="M238.4 98.2H247.4C247.7 98.2 248 98.5 248 98.8V100.4C248 100.7 247.7 101 247.4 101H238.4C238.1 101 237.8 100.7 237.8 100.4V98.8C237.8 98.4 238 98.2 238.4 98.2Z" fill="white"/>
<path fill-rule="evenodd" clip-rule="evenodd" d="M236.4 90.4H249.2V92.6C249.2 92.9 248.9 93.2 248.6 93.2H237C236.7 93.2 236.4 92.9 236.4 92.6V90.4Z" fill="white"/>
<path fill-rule="evenodd" clip-rule="evenodd" d="M242.9 90.4H241.4C240.1 87 238.5 79.7 238.5 71.7C238.5 61.4 240.4 53 242.8 53C245.2 53 247.1 61.4 247.1 71.7C247.1 79.7 245.5 87 244.2 90.4H242.9Z" fill="white"/>
<path fill-rule="evenodd" clip-rule="evenodd" d="M247.4 101V106.8C247.4 107.4 246.9 107.9 246.3 107.9H243.9C244.5 107.9 245 107.4 245 106.8V101H247.4Z" fill="#713BDB"/>
<path fill-rule="evenodd" clip-rule="evenodd" d="M244.9 98.2H247.3C247.6 98.2 247.9 98.5 247.9 98.8V100.4C247.9 100.7 247.6 101 247.3 101H244.9C245.2 101 245.5 100.7 245.5 100.4V98.8C245.5 98.4 245.3 98.2 244.9 98.2Z" fill="#713BDB"/>
<path fill-rule="evenodd" clip-rule="evenodd" d="M246.8 90.4H249.2V92.6C249.2 92.9 248.9 93.2 248.6 93.2H246.2C246.5 93.2 246.8 92.9 246.8 92.6V90.4Z" fill="#713BDB"/>
<path d="M242.9 91.3H237.4V92.3H240.5H245.3H248.4V91.3H242.9ZM239 97.3H239.5V94.1H238.2L239 97.3ZM241.3 97.3H244.3V94.1H241.3V97.3ZM246.2 97.3H246.7L247.5 94.1H246.2V97.3ZM248.4 97.7C248.4 97.7 248.5 97.8 248.4 97.7C248.7 98 248.8 98.4 248.8 98.8V100.4C248.8 100.8 248.6 101.2 248.4 101.5C248.4 101.5 248.3 101.6 248.2 101.6V106.8C248.2 107.4 248 107.9 247.6 108.2C247.6 108.2 247.6 108.2 247.5 108.3C247.1 108.6 246.7 108.8 246.1 108.8H239.3C238.8 108.8 238.2 108.6 237.9 108.2C237.5 107.8 237.3 107.3 237.3 106.8V101.6C237.2 101.6 237.2 101.5 237.1 101.5C236.8 101.2 236.7 100.9 236.7 100.4V98.8C236.7 98.4 236.9 98 237.1 97.8L236.1 94C236 93.9 235.9 93.9 235.8 93.8C235.5 93.5 235.4 93.2 235.4 92.8V90.9C232.4 88.9 229 85.8 226.5 82.1C224.4 79 223 75.4 223 71.6C223 66.2 225.2 61.3 228.7 57.7C232.3 54.1 237.2 52 242.6 52C248 52 252.9 54.2 256.5 57.7C260.1 61.3 262.2 66.2 262.2 71.6C262.2 75.3 260.8 78.9 258.7 82.1C256.3 85.8 252.9 88.9 249.8 90.9V92.6C249.8 93 249.6 93.4 249.4 93.7C249.3 93.8 249.2 93.9 249.1 93.9L248.4 97.7ZM246.5 101.8H239.3V106.7C239.3 106.8 239.3 106.8 239.4 106.9C239.4 106.9 239.5 107 239.6 107H246.4C246.5 107 246.5 107 246.5 107C246.5 107 246.6 106.9 246.6 106.8V101.8H246.5ZM247 99.1H245.2H240.4H238.6V100.1H247V99.1ZM236.7 89.5H242.9H249.1C252 87.6 255.3 84.7 257.6 81.1C259.5 78.2 260.8 75 260.8 71.6C260.8 66.7 258.8 62.2 255.6 59C252.4 55.8 247.9 53.8 243 53.8C238.1 53.8 233.6 55.8 230.4 59C227.2 62.2 225.2 66.7 225.2 71.6C225.2 75 226.5 78.2 228.4 81.1C230.5 84.7 233.8 87.7 236.7 89.5Z" fill="#20154E"/>
<path fill-rule="evenodd" clip-rule="evenodd" d="M432 181.572V226.599H423.48V258.632H425.158V276H255.927V258.632H257.605V208.845L247.665 216.307C247.278 216.564 246.633 216.564 246.374 216.178L244.18 213.219C243.922 212.834 243.922 212.19 244.309 211.933L306.658 165.105L328.473 181.443H344.609V176.04H346.029V165.491H344.609V161.245H346.029V157H355.581V161.245H357.001V165.491H355.581V176.04H357.001V181.443H432V181.572Z" fill="#F5F6FA"/>
<path d="M345 193.857C345 194.492 344.556 195 344 195C343.444 195 343 194.492 343 193.857V188.143C343 187.508 343.444 187 344 187C344.556 187 345 187.508 345 188.143V193.857Z" fill="#20154E"/>
<path d="M335 184.265C335 184.673 334.333 185 333.5 185C332.667 185 332 184.673 332 184.265V181.735C332 181.327 332.667 181 333.5 181C334.333 181 335 181.327 335 181.735V184.265Z" fill="#20154E"/>
<path d="M422 216.852C422 217.49 421.333 218 420.5 218C419.667 218 419 217.49 419 216.852V182.148C419 181.51 419.667 181 420.5 181C421.333 181 422 181.51 422 182.148V216.852Z" fill="#20154E"/>
<path d="M411 216.852C411 217.49 410.556 218 410 218C409.444 218 409 217.49 409 216.852V182.148C409 181.51 409.444 181 410 181C410.556 181 411 181.51 411 182.148V216.852Z" fill="#20154E"/>
<path d="M400 216.852C400 217.49 399.556 218 399 218C398.444 218 398 217.49 398 216.852V182.148C398 181.51 398.444 181 399 181C399.556 181 400 181.51 400 182.148V216.852Z" fill="#20154E"/>
<path d="M389 216.852C389 217.49 388.556 218 388 218C387.444 218 387 217.49 387 216.852V182.148C387 181.51 387.444 181 388 181C388.556 181 389 181.51 389 182.148V216.852Z" fill="#20154E"/>
<path d="M378 216.852C378 217.49 377.556 218 377 218C376.444 218 376 217.49 376 216.852V182.148C376 181.51 376.444 181 377 181C377.556 181 378 181.51 378 182.148V216.852Z" fill="#20154E"/>
<path d="M367 209.875C367 210.5 366.556 211 366 211C365.444 211 365 210.5 365 209.875V182.125C365 181.5 365.444 181 366 181C366.556 181 367 181.5 367 182.125V209.875Z" fill="#20154E"/>
<path d="M356 201.866C356 202.496 355.556 203 355 203C354.444 203 354 202.496 354 201.866V188.134C354 187.504 354.444 187 355 187C355.556 187 356 187.504 356 188.134V201.866Z" fill="#20154E"/>
<path fill-rule="evenodd" clip-rule="evenodd" d="M423.328 226.446V232.238H377.507L381.519 241.376L378.154 245.881H373.106V276H357.185V258.624H355.502V213.574L339.322 201.475L317.059 218.079V245.495L303.209 212.673L306.445 216.921L317.189 208.941L336.345 194.525L355.502 208.812L365.469 216.277L368.834 211.772L372.717 220.911H432V226.574H423.328V226.446ZM328.967 275.871H321.46V258.495L328.967 275.871ZM323.272 258.495H329.485V235.97C331.556 234.554 333.757 233.396 335.957 232.752L338.5 232L339.452 231.98C342.429 231.594 345.665 231.98 348.901 233.139V216.792C339.064 211 330.65 211.515 323.143 216.792V258.495H323.272ZM257.129 208.812L306.316 172L331.686 191.049L328.579 193.366L309.163 178.822L303.598 182.941C301.397 183.584 299.585 185 298.291 186.931L257 217.822V208.812H257.129Z" fill="#713BDB"/>
<rect x="276" y="222" width="25" height="31" fill="#FFD87A"/>
<rect x="335" y="228" width="4" height="24" fill="#FFD87A"/>
<rect x="282" y="267" width="13" height="5" fill="#FFD87A"/>
<circle cx="308.5" cy="195.5" r="8.5" fill="#FFD87A"/>
<path d="M307.31 164.271C307.439 164.271 307.439 164.4 307.567 164.53L307.31 164.271ZM337.058 186.888C337.187 186.888 337.187 187.017 337.316 187.146L337.058 186.888ZM257.085 276.578C257.085 277.225 256.57 277.742 255.926 277.742C255.282 277.742 254.767 277.225 254.767 276.578V259.131C254.767 258.485 255.282 257.968 255.926 257.968H256.57V211.443L248.586 217.517C248.071 217.905 247.556 218.034 247.04 217.905C246.525 217.775 246.01 217.517 245.624 217.129L243.435 214.157C243.048 213.64 242.92 213.123 243.048 212.606C243.177 212.089 243.435 211.572 243.821 211.184L306.022 164.142C306.408 163.883 307.052 163.883 307.439 164.142L328.816 180.297H343.369V176.032C343.369 175.386 343.884 174.869 344.528 174.869H344.914V166.856H344.528C343.884 166.856 343.369 166.339 343.369 165.693V161.428C343.369 160.782 343.884 160.265 344.528 160.265H344.914V157.163C344.914 156.517 345.429 156 346.073 156H355.603C356.247 156 356.762 156.517 356.762 157.163V160.265H357.148C357.792 160.265 358.307 160.782 358.307 161.428V165.693C358.307 166.339 357.792 166.856 357.148 166.856H356.762V175.127H357.148C357.792 175.127 358.307 175.644 358.307 176.29V180.555H431.841C432.485 180.555 433 181.072 433 181.718V221.394V227.081C433 227.727 432.485 228.244 431.841 228.244H424.5V258.097H425.144C425.788 258.097 426.303 258.614 426.303 259.261V276.708C426.303 277.354 425.788 277.871 425.144 277.871C424.5 277.871 423.985 277.354 423.985 276.708V260.424H423.341H413.812V263.138V276.708C413.812 277.354 413.297 277.871 412.653 277.871C412.009 277.871 411.494 277.354 411.494 276.708V264.301H367.451V276.708C367.451 277.354 366.935 277.871 366.292 277.871C365.648 277.871 365.133 277.354 365.133 276.708V263.138V260.424H358.565V276.708C358.565 277.354 358.05 277.871 357.406 277.871C356.762 277.871 356.247 277.354 356.247 276.708V260.424H355.603H352.126V263.655V268.049V272.572V276.837C352.126 277.483 351.611 278 350.967 278C350.323 278 349.808 277.483 349.808 276.837V273.735H322.892V276.837C322.892 277.483 322.377 278 321.733 278C321.089 278 320.574 277.483 320.574 276.837V272.572V268.049V263.655V260.424H317.097H316.453V276.708C316.453 277.354 315.938 277.871 315.294 277.871C314.65 277.871 314.135 277.354 314.135 276.708V260.424H257.472H256.828V276.578H257.085ZM331.778 182.881L337.058 186.888L369.382 211.314C369.897 211.701 370.155 212.218 370.155 212.735C370.284 213.252 370.155 213.769 369.769 214.286L367.579 217.258C367.193 217.775 366.678 218.034 366.163 218.034C365.648 218.163 365.132 218.034 364.617 217.646L356.633 211.572V220.231H430.424V182.881H358.05V188.18C358.05 188.826 357.534 189.343 356.891 189.343H344.399C343.755 189.343 343.24 188.826 343.24 188.18V182.881H331.778ZM327.657 182.623L306.537 166.597L245.238 212.994L247.169 215.578L256.828 208.212C256.828 208.212 256.828 208.212 256.957 208.083L305.765 171.121C306.151 170.862 306.795 170.733 307.181 171.121L331.649 189.602L334.354 187.534L327.657 182.623ZM354.315 175.127V166.856H347.103V175.127H354.315ZM355.732 177.453H355.345H345.815H345.429V181.718V187.017H355.603V181.718V177.453H355.732ZM354.315 160.136V158.197H347.103V160.136H354.315ZM345.558 164.53H345.944H355.474H355.86V162.591H355.474H345.944H345.558V164.53ZM421.925 228.114H356.504V257.968H357.148H364.875V249.568V235.998C364.875 235.352 365.39 234.835 366.034 234.835H412.395C413.039 234.835 413.554 235.352 413.554 235.998V249.568V258.097H421.925V228.114ZM430.424 222.557H356.633V225.917H423.213H430.553V222.557H430.424ZM411.365 261.845V259.131V250.602H367.322V259.131V261.845H411.365ZM411.365 248.405V237.161H367.322V248.405H411.365ZM334.096 251.636H338.475V228.114H334.096V251.636ZM339.634 253.962H332.937C332.293 253.962 331.778 253.445 331.778 252.799V226.951C331.778 226.305 332.293 225.788 332.937 225.788H339.634C340.278 225.788 340.793 226.305 340.793 226.951V252.799C340.793 253.445 340.278 253.962 339.634 253.962ZM327.142 258.097V221.394C327.142 220.748 327.657 220.231 328.301 220.231H344.27C344.914 220.231 345.429 220.748 345.429 221.394V258.097H348.005V218.551C346.459 217.258 344.656 216.225 342.853 215.449C340.793 214.674 338.604 214.286 336.414 214.286C334.225 214.286 332.036 214.674 329.975 215.449C328.044 216.225 326.369 217.258 324.824 218.551V257.968H327.142V258.097ZM343.111 258.097V222.557H329.46V258.097H343.111ZM349.808 217.129C350.065 217.388 350.194 217.646 350.194 218.034V257.968H350.838H354.315V226.951V221.265V209.763L336.286 196.193L318.256 209.763V257.968H321.733H322.377V218.034C322.377 217.646 322.506 217.388 322.764 217.129C324.567 215.449 326.756 214.157 329.074 213.252C331.392 212.347 333.839 211.83 336.286 211.83C338.732 211.83 341.308 212.347 343.497 213.252C345.815 214.157 348.005 215.449 349.808 217.129ZM355.86 208.083C356.118 208.212 356.247 208.341 356.375 208.47L365.905 215.578L367.837 212.994L336.286 189.214L332.293 192.186L304.734 212.994L306.666 215.578L316.325 208.212C316.325 208.212 316.453 208.212 316.453 208.083L335.513 193.737C335.899 193.479 336.543 193.35 336.929 193.737L355.86 208.083ZM316.067 211.572L308.083 217.646C307.567 218.034 307.052 218.163 306.537 218.034C306.022 217.905 305.507 217.646 305.121 217.258L302.931 214.286C302.545 213.769 302.416 213.252 302.545 212.735C302.674 212.218 302.931 211.701 303.318 211.314L329.847 191.282L306.666 173.705L258.888 209.763V257.968H315.552H316.196V211.572H316.067ZM306.537 182.623C309.113 182.623 311.56 183.657 313.234 185.466C314.908 187.146 316.067 189.602 316.067 192.186C316.067 194.771 315.037 197.227 313.234 198.907C311.56 200.587 309.113 201.75 306.537 201.75C303.962 201.75 301.515 200.716 299.841 198.907C298.166 197.227 297.007 194.771 297.007 192.186C297.007 189.602 298.038 187.146 299.841 185.466C301.515 183.786 303.833 182.623 306.537 182.623ZM311.56 187.146C310.272 185.854 308.469 185.078 306.408 185.078C304.348 185.078 302.674 185.854 301.257 187.146C299.969 188.439 299.197 190.248 299.197 192.316C299.197 194.254 299.969 196.064 301.257 197.485C302.545 198.778 304.348 199.553 306.408 199.553C308.469 199.553 310.143 198.778 311.56 197.485C312.976 196.193 313.62 194.383 313.62 192.316C313.749 190.248 312.976 188.439 311.56 187.146ZM273.312 216.871H280.008H294.818H301.515C302.159 216.871 302.674 217.388 302.674 218.034V252.799C302.674 253.445 302.159 253.962 301.515 253.962H294.818H280.008H273.312C272.668 253.962 272.153 253.445 272.153 252.799V218.034C272.153 217.388 272.668 216.871 273.312 216.871ZM293.659 251.636V219.197H281.167V251.636H293.659ZM295.977 219.197V251.636H300.356V219.197H295.977ZM278.849 251.636V219.197H274.471V251.636H278.849ZM349.679 271.15V268.953H322.892V271.15H349.679ZM349.679 266.756V264.689H322.892V266.756H349.679ZM349.679 262.362V260.294H349.035H344.141H328.172H323.279H322.892V262.362H349.679ZM280.008 262.362H294.818C295.462 262.362 295.977 262.879 295.977 263.525V272.314C295.977 272.96 295.462 273.477 294.818 273.477H280.008C279.364 273.477 278.849 272.96 278.849 272.314V263.525C278.849 262.879 279.364 262.362 280.008 262.362ZM293.659 264.689H281.167V271.15H293.659V264.689Z" fill="#20154E"/>
</svg>
