<svg fill="none" height="800" viewBox="0 0 800 800" width="800" xmlns="http://www.w3.org/2000/svg"><circle cx="400" cy="400" fill="#d6d6d6" r="400"/><g clip-rule="evenodd" fill="#a0a0a0" fill-rule="evenodd"><path d="m289.241 265.19c-13.283 0-24.051 10.768-24.051 24.051v221.518c0 13.283 10.768 24.051 24.051 24.051h221.518c13.283 0 24.051-10.768 24.051-24.051v-221.518c0-13.283-10.768-24.051-24.051-24.051zm-39.241 24.051c0-21.672 17.569-39.241 39.241-39.241h221.518c21.672 0 39.241 17.569 39.241 39.241v221.518c0 21.672-17.569 39.241-39.241 39.241h-221.518c-21.672 0-39.241-17.569-39.241-39.241z"/><path d="m344.62 328.481c-8.913 0-16.139 7.226-16.139 16.139 0 8.914 7.226 16.139 16.139 16.139 8.914 0 16.139-7.225 16.139-16.139 0-8.913-7.225-16.139-16.139-16.139zm-31.329 16.139c0-17.302 14.027-31.329 31.329-31.329 17.303 0 31.329 14.027 31.329 31.329 0 17.303-14.026 31.329-31.329 31.329-17.302 0-31.329-14.026-31.329-31.329z"/><path d="m457.921 362.984c2.966-2.966 7.775-2.966 10.741 0l79.114 79.114c2.966 2.966 2.966 7.775 0 10.741s-7.775 2.966-10.741 0l-73.744-73.744-168.68 168.68c-2.966 2.966-7.775 2.966-10.741 0s-2.966-7.774 0-10.74z"/></g></svg>