<svg enable-background="new 0 0 151 48" viewBox="0 0 151 48" xmlns="http://www.w3.org/2000/svg"><circle clip-rule="evenodd" cx="24" cy="24" fill="#4a556b" fill-rule="evenodd" r="24"/><path clip-rule="evenodd" d="m29.6 28.6v.3h-1.1v-4.5c0-.7-.5-1.2-1.2-1.2h-6.8c-.7 0-1.2.5-1.2 1.2v4.6h-1.1v-15.6c0-.2.2-.4.4-.4h.3c.2 0 .4.2.4.4v5.6c0 1.3 1 2.3 2.3 2.3h4.8c1.3 0 2.3-1 2.3-2.3v-5.6c0-.2.2-.4.4-.4h.3c.2 0 .4.2.4.4zm-3.1-3.5h.9v-.9h-.9zm0 1.2h.9v-.9h-.9zm0 1.1h.9v-.9h-.9zm0 1.2h.9v-.8h-.9zm-1.2-3.5h.9v-.9h-.9zm0 1.2h.9v-.9h-.9zm0 1.1h.9v-.9h-.9zm0 1.1h.9v-.8h-.9zm-1.2-3.4h.9v-.9h-.9zm0 1.2h.9v-.9h-.9zm0 1.1h.9v-.9h-.9zm0 1.1h.9v-.8h-.9zm-1.2-3.4h.9v-.9h-.9zm0 1.2h.9v-.9h-.9zm0 1.1h.9v-.9h-.9zm0 1.1h.9v-.8h-.9zm-1.2-3.4h.9v-.9h-.9zm0 1.2h.9v-.9h-.9zm0 1.1h.9v-.9h-.9zm0 1.1h.9v-.8h-.9zm-1.2-3.4h.9v-.9h-.9zm0 1.2h.9v-.9h-.9zm.9 1.1h-.9v-.9h.9zm-1 1.1h.9v-.8h-.9zm11.8.1h-1.5v-15.2c0-.8-.6-1.4-1.4-1.4h-.3c-.8 0-1.4.6-1.4 1.4v5.6c0 .7-.6 1.2-1.2 1.2h-4.8c-.7 0-1.2-.6-1.2-1.2v-5.6c0-.8-.6-1.4-1.4-1.4h-.3c-.8 0-1.4.6-1.4 1.4v15.2h-1.4c-.7 0-1.2.6-1.2 1.2v6.2h18.9v-6.2c-.2-.7-.8-1.2-1.4-1.2z" fill="#fff" fill-rule="evenodd"/><path d="m147 21 4 3-4 3v-2.5h-2v-1h2zm-90 2.5v1h-2v-1zm3 0v1h-2v-1zm3 0v1h-2v-1zm3 0v1h-2v-1zm3 0v1h-2v-1zm3 0v1h-2v-1zm3 0v1h-2v-1zm3 0v1h-2v-1zm3 0v1h-2v-1zm3 0v1h-2v-1zm3 0v1h-2v-1zm3 0v1h-2v-1zm3 0v1h-2v-1zm3 0v1h-2v-1zm3 0v1h-2v-1zm-45 0v1h-2v-1zm51 0v1h-2v-1zm3 0v1h-2v-1zm3 0v1h-2v-1zm3 0v1h-2v-1zm3 0v1h-2v-1zm3 0v1h-2v-1zm3 0v1h-2v-1zm3 0v1h-2v-1zm3 0v1h-2v-1zm3 0v1h-2v-1zm3 0v1h-2v-1zm3 0v1h-2v-1zm3 0v1h-2v-1zm3 0v1h-2v-1zm-42 0v1h-2v-1z" fill="#4a556b"/><path clip-rule="evenodd" d="m83 16h33c4.4 0 8 3.6 8 8 0 4.4-3.6 8-8 8h-33c-4.4 0-8-3.6-8-8 0-4.4 3.6-8 8-8z" fill="#4a556b" fill-rule="evenodd"/><g enable-background="new" fill="#fff"><path d="m87.6 24.3c0-.4 0-.8.1-1.1s.2-.6.4-.9c.2-.2.4-.4.7-.6s.5-.2.9-.2c.3 0 .5 0 .8.1.2.1.4.2.6.4v-2.7h1.2v7.7h-1.1l-.1-.5c-.2.2-.4.4-.6.5s-.5.2-.8.2-.6-.1-.9-.2-.5-.3-.7-.6-.3-.5-.4-.8-.1-.7-.1-1.1zm1.2.1c0 .2 0 .5.1.7 0 .2.1.4.2.5.1.2.2.3.4.4s.3.1.6.1.5-.1.7-.2.3-.3.4-.5v-2.3c-.1-.2-.2-.3-.4-.5s-.4-.2-.6-.2-.4 0-.6.1-.3.2-.4.4-.2.3-.2.6c0 .2-.1.4-.1.7v.2z"/><path d="m97.6 27c0-.1-.1-.1-.1-.2s0-.2-.1-.3c-.1.1-.2.2-.3.2-.1.1-.2.1-.3.2s-.2.1-.3.1-.3 0-.5 0c-.3 0-.5 0-.8-.1-.2-.1-.4-.2-.6-.3s-.3-.3-.4-.5-.1-.4-.1-.6c0-.6.2-1 .6-1.3s1-.4 1.8-.4h.9v-.3c0-.3-.1-.5-.3-.7s-.5-.2-.8-.2c-.2 0-.3 0-.4.1-.1 0-.2.1-.3.2s-.1.1-.2.2-.1.2-.1.3h-1.2c0-.2 0-.4.1-.6s.2-.4.4-.5c.2-.2.4-.3.7-.4s.6-.1.9-.1.6 0 .9.1.5.2.7.3c.2.2.3.3.5.6.1.2.2.5.2.8v2.4c0 .2 0 .4.1.6 0 .2.1.4.1.5v-.1zm-1.4-.8c.1 0 .3 0 .4-.1.1 0 .3-.1.4-.1.1-.1.2-.1.3-.2s.1-.2.2-.2v-1h-.7c-.5 0-.8.1-1.1.2-.2.2-.3.4-.3.7 0 .1 0 .2.1.3 0 .1.1.2.2.2.1.1.2.1.3.2s.1 0 .2 0z"/><path d="m103.1 20.4v1.3h2v.9h-2v2.5c0 .2 0 .4.1.5 0 .1.1.2.2.3s.2.1.3.2h.4.3.3.3c.1 0 .2 0 .2-.1l.1.8c-.1 0-.2.1-.3.1s-.2.1-.4.1c-.1 0-.3 0-.4.1-.2 0-.3 0-.4 0-.3 0-.5 0-.7-.1s-.4-.2-.6-.3c-.2-.2-.3-.4-.4-.6s-.1-.5-.1-.9v-2.6h-1.3v-.9h1.3v-1.3z"/><path d="m110.6 27c0-.1-.1-.1-.1-.2s0-.2-.1-.3c-.1.1-.2.2-.3.2-.1.1-.2.1-.3.2s-.3.1-.4.1-.3 0-.5 0c-.3 0-.5 0-.8-.1-.2-.1-.4-.2-.6-.3s-.3-.3-.4-.5-.1-.4-.1-.6c0-.6.2-1 .6-1.3s1-.4 1.8-.4h.9v-.3c0-.3-.1-.5-.3-.7s-.5-.2-.8-.2c-.2 0-.3 0-.4.1-.1 0-.2.1-.3.2s-.1.1-.2.2-.1.2-.1.3h-1.2c0-.2 0-.4.1-.6s.2-.4.4-.5c.2-.2.4-.3.7-.4s.6-.1.9-.1.6 0 .9.1.5.2.7.3c.2.2.3.3.5.6.1.2.2.5.2.8v2.4c0 .2 0 .4.1.6 0 .2.1.4.1.5v-.1zm-1.4-.8c.1 0 .3 0 .4-.1.1 0 .3-.1.4-.1.1-.1.2-.1.3-.2s.1-.2.2-.2v-1h-.7c-.5 0-.8.1-1.1.2-.2.2-.3.4-.3.7 0 .1 0 .2.1.3 0 .1.1.2.2.2.1.1.2.1.3.2s.1 0 .2 0z"/></g></svg>