<svg width="255" height="42" viewBox="0 0 255 42" fill="none" xmlns="http://www.w3.org/2000/svg">
<g clip-path="url(#clip0)">
<path d="M65.2034 17.7112C64.1297 16.6743 62.8518 15.8722 61.4512 15.3559C60.0505 14.8396 58.5577 14.6203 57.0676 14.7121C49.5187 14.7121 44.8446 19.9489 44.8446 28.3499C44.6787 31.9509 45.85 35.4861 48.1333 38.2763C49.2786 39.5048 50.6751 40.4723 52.2278 41.1131C53.7805 41.7539 55.453 42.053 57.1317 41.99C58.6685 42.067 60.2041 41.8135 61.6344 41.2464C63.0648 40.6792 64.3566 39.8117 65.4227 38.7026L65.7432 41.4135H71.5047V15.2912H65.2675L65.2034 17.7112ZM58.1721 36.7459C54.0574 36.7459 51.6044 33.6039 51.6044 28.3499C51.6044 23.0959 54.0476 19.971 58.1721 19.971C62.2966 19.971 64.9 23.2289 64.9 28.4731C64.9 33.5693 62.3238 36.7459 58.1746 36.7459H58.1721Z" fill="#20154E"/>
<path d="M92.3891 35.8416C91.6631 36.1354 90.887 36.2861 90.1037 36.2852C87.5274 36.2852 86.7214 35.5877 86.7214 31.2825V20.6858H93.612V15.2839H86.7091V6.89041L85.0892 7.15153C83.8793 7.35095 82.7738 7.95763 81.9559 8.87104C81.1381 9.78445 80.6571 10.9498 80.5925 12.1739L80.442 15.2839H76.4976V20.6858H80.272V30.8586C79.9817 33.5052 80.3807 36.1819 81.4306 38.6288C82.6239 40.8467 84.8502 41.8324 88.6419 41.8324C90.3126 41.8576 91.9782 41.6418 93.5873 41.1916L94.0804 41.0635L92.9734 35.642L92.3891 35.8416Z" fill="#20154E"/>
<path d="M117.185 17.7113C116.111 16.6748 114.834 15.8729 113.433 15.3566C112.032 14.8403 110.54 14.6208 109.05 14.7122C101.503 14.7122 96.8265 19.949 96.8265 28.3499C96.6607 31.9509 97.8319 35.4862 100.115 38.2764C101.26 39.5045 102.656 40.4719 104.209 41.1127C105.761 41.7535 107.433 42.0527 109.111 41.9901C110.648 42.0669 112.183 41.8133 113.613 41.2461C115.043 40.679 116.334 39.8116 117.4 38.7027L117.725 41.4135H123.487V15.2913H117.259L117.185 17.7113ZM110.152 36.746C106.037 36.746 103.584 33.6039 103.584 28.3499C103.584 23.0959 106.027 19.9711 110.152 19.9711C114.276 19.9711 116.882 23.229 116.882 28.4731C116.882 33.5694 114.308 36.746 110.159 36.746H110.152Z" fill="#20154E"/>
<path d="M140.894 25.4838C139.569 25.1054 138.273 24.631 137.016 24.0644C136.656 23.8865 136.354 23.6104 136.144 23.2681C135.934 22.9258 135.825 22.5313 135.83 22.1299C135.83 20.6365 137.063 19.8455 139.371 19.8455C141.473 19.849 143.525 20.4947 145.25 21.6961L145.743 22.0018L148.187 17.4008L147.768 17.1371C145.19 15.4473 142.153 14.5943 139.072 14.6949C133.155 14.6949 129.766 17.4871 129.766 22.3739C129.766 26.2774 132.039 28.8108 136.927 30.351C138.698 30.7315 140.412 31.3429 142.023 32.1696C142.309 32.3437 142.541 32.5943 142.691 32.8931C142.842 33.1919 142.906 33.5268 142.876 33.8601C142.876 35.8316 141.316 36.8174 138.239 36.8174C135.792 36.8968 133.381 36.2176 131.336 34.873L130.816 34.5231L128.518 39.5086L128.945 39.7549C131.889 41.3536 135.212 42.1204 138.559 41.9729C147.203 41.9729 149.02 37.5074 149.02 33.764C148.985 29.4612 147.016 27.4479 140.894 25.4838Z" fill="#20154E"/>
<path d="M179.96 32.421L173.41 15.3997L173.368 15.2838H170.126L163.534 32.421L158.941 15.2838H151.988L160.743 41.2582L160.866 41.6204H165.427L171.748 25.2866L178.069 41.6204H182.63L191.505 15.2814H184.555L179.96 32.421Z" fill="#20154E"/>
<path d="M199.432 4.16229C198.916 4.11902 198.396 4.18516 197.908 4.35647C197.419 4.52779 196.972 4.80039 196.596 5.15637C196.221 5.51234 195.924 5.94363 195.727 6.42209C195.529 6.90054 195.435 7.41531 195.45 7.93268C195.418 8.4574 195.5 8.98285 195.691 9.47275C195.882 9.96264 196.177 10.4054 196.555 10.7704C196.934 11.1353 197.387 11.414 197.883 11.5869C198.38 11.7599 198.908 11.8231 199.432 11.7723C199.949 11.8083 200.469 11.7344 200.956 11.5554C201.443 11.3763 201.887 11.0963 202.257 10.7337C202.628 10.371 202.918 9.93384 203.108 9.45109C203.298 8.96834 203.384 8.45081 203.359 7.93268C203.382 7.41795 203.295 6.90416 203.104 6.4257C202.913 5.94723 202.622 5.51509 202.25 5.15817C201.878 4.80125 201.434 4.52778 200.948 4.35602C200.462 4.18427 199.945 4.11827 199.432 4.16229Z" fill="#20154E"/>
<path d="M202.733 15.2864H196.128V41.4185H202.733V15.2864Z" fill="#20154E"/>
<path d="M219.023 6.02029C219.443 5.34998 220.187 5.07404 221.587 5.07404C222.511 5.07189 223.426 5.24493 224.285 5.58409L224.889 5.79602L225.692 0.69494L225.214 0.576566C223.693 0.191024 222.131 -0.00348096 220.562 -0.00252172C219.218 -0.139435 217.862 0.0699542 216.622 0.605746C215.382 1.14154 214.3 1.98588 213.479 3.05822C212.165 5.40016 211.622 8.09654 211.928 10.7643V15.3036H208.048V20.6808H211.909V41.4109H218.36V20.6808H225.187V15.2789H218.346V10.4857C218.19 8.9639 218.424 7.42755 219.023 6.02029Z" fill="#20154E"/>
<path d="M244.966 35.6444L244.394 35.8317C243.667 36.1255 242.89 36.2761 242.106 36.2753C239.53 36.2753 238.726 35.5779 238.726 31.2727V20.676H245.629V15.2741H238.726V6.88049L237.109 7.14176C235.898 7.34129 234.792 7.94855 233.973 8.86293C233.155 9.7773 232.674 10.9438 232.61 12.169L232.46 15.2741H228.532V20.676H232.292V30.8488C232.002 33.4956 232.402 36.1724 233.453 38.619C234.646 40.8369 236.87 41.8226 240.664 41.8226C242.335 41.8478 244.001 41.632 245.61 41.1819L246.103 41.0537L244.966 35.6444Z" fill="#20154E"/>
<path d="M34.2263 6.70057C29.6283 2.82462 23.7514 0.798833 17.7407 1.01784H-0.00976562V1.55015C0.0698095 2.8399 0.641876 4.04981 1.5884 4.92992C2.53493 5.81002 3.78356 6.29294 5.0762 6.27911H17.2008C22.1025 6.19647 26.8928 7.74386 30.8193 10.6781C32.3786 12.017 33.6295 13.6774 34.4862 15.5453C35.3428 17.4131 35.7849 19.4442 35.7821 21.499V21.9376C34.9417 19.2286 33.3703 16.8035 31.2408 14.929C27.505 11.9 22.8161 10.2925 18.0069 10.3921H5.3129V10.927C5.39053 12.2155 5.95984 13.425 6.90339 14.3063C7.84694 15.1876 9.09282 15.6734 10.3841 15.6635H17.9971C25.3931 15.6635 31.1866 20.2891 31.1866 26.1937C31.1606 27.53 30.8514 28.8456 30.2794 30.0537C29.7074 31.2618 28.8856 32.335 27.8683 33.2023C25.7285 35.0925 23.0328 36.2374 20.1863 36.4651C16.8853 36.7115 5.97601 36.7238 5.86754 36.7238H5.3129V37.2561C5.46211 38.5621 6.08781 39.7674 7.07026 40.6413C8.05272 41.5151 9.32289 41.9962 10.638 41.9926H18.458C24.2262 42.0694 29.8261 40.0501 34.2165 36.3098C36.3388 34.4709 38.0408 32.1976 39.2073 29.6437C40.3738 27.0898 40.9776 24.3151 40.9776 21.5076C40.9776 18.7001 40.3738 15.9255 39.2073 13.3717C38.0408 10.8178 36.3388 8.54442 34.2165 6.70553L34.2263 6.70057Z" fill="#20154E"/>
<path d="M248.413 15.2814H251.214V15.5797H249.981V18.7168H249.641V15.5821H248.408L248.413 15.2814ZM255.001 15.2814V18.7168H254.685V15.9715L253.514 18.2165H253.267L252.094 16.0183V18.7168H251.764V15.284H252.047L253.398 17.8444L254.729 15.284L255.001 15.2814Z" fill="#20154E"/>
</g>
<defs>
<clipPath id="clip0">
<rect width="255" height="42" fill="white"/>
</clipPath>
</defs>
</svg>
