<svg xmlns="http://www.w3.org/2000/svg" xmlns:xlink="http://www.w3.org/1999/xlink" width="77.034" height="80.622" viewBox="0 0 77.034 80.622"><defs><style>.a{fill:url(#a);}</style><linearGradient id="a" x1="0.527" y1="0.122" x2="0" y2="0.122" gradientUnits="objectBoundingBox"><stop offset="0" stop-color="#20154e" stop-opacity="0"/><stop offset="1" stop-color="#20154e"/></linearGradient></defs><path class="a" d="M104.394,51.245C96.309,43.851,85.886,40.06,73.42,40.06H40.07v1.049a9.677,9.677,0,0,0,9.53,9.323H72.412c9.633,0,19.941,3.482,25.586,8.658a28.567,28.567,0,0,1,9.325,21.261v.867a30.591,30.591,0,0,0-8.554-13.773c-6.043-5.606-15.343-8.954-24.879-8.954H50.069v1.022a9.673,9.673,0,0,0,9.53,9.323H73.889c13.9,0,24.8,9.108,24.8,20.73a18.967,18.967,0,0,1-6.242,13.793,24.237,24.237,0,0,1-14.456,6.419c-6.2.5-26.71.511-26.915.511h-1v1.055c0,5.3,5.369,9.337,10.012,9.337H74.775A43.526,43.526,0,0,0,104.394,109.5a39.735,39.735,0,0,0,0-58.258Z" transform="translate(-40.07 -40.06)"/></svg>