<svg xmlns="http://www.w3.org/2000/svg" xmlns:xlink="http://www.w3.org/1999/xlink" width="60.381" height="80.622" viewBox="0 0 60.381 80.622"><defs><style>.a{fill:url(#a);}</style><linearGradient id="a" x1="0.524" y1="0.04" x2="0" y2="0.037" gradientUnits="objectBoundingBox"><stop offset="0" stop-color="#20154e" stop-opacity="0"/><stop offset="1" stop-color="#20154e"/></linearGradient></defs><path class="a" d="M90.489,51.245A30.745,30.745,0,0,0,66.211,40.06H40.07v1.049c0,4.961,3.488,9.323,7.47,9.323H65.42c7.551,0,15.63,3.482,20.055,8.658,4.643,5.324,7.313,13.09,7.309,21.261v.867a32.75,32.75,0,0,0-6.705-13.773,25.776,25.776,0,0,0-19.5-8.954H47.908v1.022c0,4.967,3.488,9.323,7.47,9.323h11.2c10.9,0,19.436,9.108,19.436,20.73a21.6,21.6,0,0,1-4.893,13.793,17.392,17.392,0,0,1-11.331,6.419c-4.863.5-20.936.511-21.1.511h-.785v1.055c0,5.3,4.208,9.337,7.848,9.337H67.273c8.809,0,17.055-3.966,23.216-11.185,6.327-7.321,9.962-17.95,9.962-29.129s-3.635-21.808-9.962-29.129Z" transform="translate(-40.07 -40.06)"/></svg>