<svg xmlns="http://www.w3.org/2000/svg" width="80.629" height="80.622" viewBox="0 0 80.629 80.622"><defs><style>.a{fill:#20154e;}</style></defs><path class="a" d="M107.4,51.245C98.933,43.851,88.024,40.06,74.977,40.06H40.07v1.049c0,4.961,4.658,9.323,9.975,9.323H73.921c10.083,0,20.871,3.482,26.78,8.658a28,28,0,0,1,9.76,21.261v.867a30.423,30.423,0,0,0-8.953-13.773c-6.325-5.606-16.058-8.954-26.04-8.954H50.536v1.022c0,4.967,4.658,9.323,9.975,9.323H75.467c14.553,0,25.953,9.108,25.953,20.73a18.605,18.605,0,0,1-6.534,13.793,25.94,25.94,0,0,1-15.131,6.419c-6.493.5-27.956.511-28.171.511H50.536v1.055c0,5.3,5.619,9.337,10.479,9.337h15.38a46.791,46.791,0,0,0,31-11.185,38.543,38.543,0,0,0,0-58.258Z" transform="translate(-40.07 -40.06)"/></svg>