<svg height="80.622" viewBox="0 0 60.381 80.622" width="60.381" xmlns="http://www.w3.org/2000/svg" xmlns:xlink="http://www.w3.org/1999/xlink"><linearGradient id="a" gradientUnits="objectBoundingBox" x1=".524" x2="0" y1=".04" y2=".037"><stop offset="0" stop-color="#20154e" stop-opacity="0"/><stop offset="1" stop-color="#20154e"/></linearGradient><path d="m90.489 51.245a30.745 30.745 0 0 0 -24.278-11.185h-26.141v1.049c0 4.961 3.488 9.323 7.47 9.323h17.88c7.551 0 15.63 3.482 20.055 8.658 4.643 5.324 7.313 13.09 7.309 21.261v.867a32.75 32.75 0 0 0 -6.705-13.773 25.776 25.776 0 0 0 -19.5-8.954h-18.671v1.022c0 4.967 3.488 9.323 7.47 9.323h11.2c10.9 0 19.436 9.108 19.436 20.73a21.6 21.6 0 0 1 -4.893 13.793 17.392 17.392 0 0 1 -11.331 6.419c-4.863.5-20.936.511-21.1.511h-.785v1.055c0 5.3 4.208 9.337 7.848 9.337h11.52c8.809 0 17.055-3.966 23.216-11.185 6.327-7.321 9.962-17.95 9.962-29.129s-3.635-21.808-9.962-29.129z" fill="url(#a)" transform="translate(-40.07 -40.06)"/></svg>