<svg enable-background="new 0 0 32 32" viewBox="0 0 32 32" xmlns="http://www.w3.org/2000/svg"><path d="m-2.8-2.7h187.2v129.3h-187.2z" fill="none"/><g fill="#939393"><path d="m3.9 15.8c-.1 3.1 2.1 6.1 5 7 2.8.9 6.2.2 8-2.1 1.3-1.7 1.7-3.9 1.5-5.9-2.4 0-4.7 0-7.1 0v2.5h4.3c-.4 1.2-1.2 2.4-2.4 2.8-2.4 1.1-5.4-.3-6.2-2.8-.9-2.4.6-5.3 3-6 1.5-.5 3.1.1 4.4.9.7-.6 1.3-1.3 1.9-1.9-1.5-1.2-3.4-2-5.3-1.8-3.9-.1-7.3 3.5-7.1 7.3z"/><path d="m23 12.6v2.1c-.7 0-1.4 0-2.1 0v2.1h2.1v2.1h2.1c0-.7 0-1.4 0-2.1h2.1c0-.7 0-1.4 0-2.1-.7 0-1.4 0-2.1 0 0-.7 0-1.4 0-2.1-.7 0-1.4 0-2.1 0z"/><path d="m3.9 15.8c-.2-3.8 3.2-7.4 7-7.4 2-.2 3.9.6 5.3 1.8-.6.7-1.2 1.3-1.9 1.9-1.3-.8-2.9-1.4-4.4-.9-2.5.7-3.9 3.6-3 6 .8 2.5 3.8 3.9 6.2 2.8 1.2-.4 2.1-1.6 2.4-2.8-1.4 0-2.8 0-4.3 0 0-.8 0-1.7 0-2.5h7.1c.1 2.1-.2 4.3-1.5 5.9-1.8 2.4-5.2 3.1-8 2.1-2.9-.8-5-3.8-4.9-6.9z"/><path d="m23 12.6h2.1v2.1h2.1v2.1c-.7 0-1.4 0-2.1 0v2.1c-.7 0-1.4 0-2.1 0 0-.7 0-1.4 0-2.1-.7 0-1.4 0-2.1 0 0-.7 0-1.4 0-2.1h2.1c0-.7 0-1.4 0-2.1z"/></g></svg>