<svg height="100" viewBox="0 0 100 100" width="100" xmlns="http://www.w3.org/2000/svg" xmlns:xlink="http://www.w3.org/1999/xlink"><linearGradient id="a"><stop offset="0" stop-color="#4b556b"/><stop offset=".1413" stop-color="#4b556b"/><stop offset="1" stop-color="#4b556b"/></linearGradient><linearGradient id="b" x1="88.652977%" x2="16.574292%" xlink:href="#a" y1="82.850271%" y2="29.814748%"/><linearGradient id="c" x1="99.18925%" x2="26.576474%" xlink:href="#a" y1="93.790575%" y2="48.03015%"/><linearGradient id="d"><stop offset="0" stop-color="#4b556b" stop-opacity="0"/><stop offset=".6143" stop-color="#4b556b"/><stop offset="1" stop-color="#4b556b"/></linearGradient><linearGradient id="e" x1="51.545402%" x2="49.23251%" xlink:href="#d" y1="106.66564%" y2="-11.61658%"/><linearGradient id="f" x1="48.45906%" x2="50.765253%" xlink:href="#d" y1="106.648655%" y2="-11.455588%"/><g fill="none" fill-rule="evenodd"><path d="m0 0h100v100h-100z" fill-rule="nonzero"/><path d="m0 0h100v100h-100z"/><path d="m67.5 60.9h-3.2v-32.8c0-1.7-1.4-3.1-3.1-3.1h-.6c-1.7 0-3.1 1.4-3.1 3.1v12.2c0 1.5-1.2 2.7-2.7 2.7h-10.2c-1.5 0-2.7-1.2-2.7-2.7v-12.2c0-1.7-1.4-3.1-3.1-3.1h-.6c-1.7 0-3.1 1.4-3.1 3.1v32.8h-3.1c-1.5 0-2.7 1.2-2.7 2.7v13.4h40.8v-13.4c.1-1.5-1.1-2.7-2.6-2.7zm-21.8 12.2c0 .1-.1.2-.2.2h-1c-.1 0-.2-.1-.2-.2v-3h-3.6v3c0 .1-.1.2-.2.2h-1c-.1 0-.2-.1-.2-.2v-7.3c0-.1.1-.2.2-.2h1c.1 0 .2.1.2.2v2.9h3.6v-2.9c0-.1.1-.2.2-.2h1c.1 0 .2.1.2.2zm-1.6-19.1v1.9h-2v-1.9zm-1.9-.6v-2h2v2c-.1 0-2 0-2 0zm2 3.2v1.9h-2v-1.9zm-.1 2.5v1.8h-2v-1.8zm2.7 1.8h-2v-1.8h2zm0-2.4h-2v-1.9h2zm0-2.6h-2v-1.9h2zm0-2.5h-2v-2h2zm2.6.6v1.9h-2v-1.9zm-2-.6v-2h2v2zm2 3.2v1.9h-2v-1.9zm0 2.5v1.8h-2v-1.8zm5.5 14.2h-1c-.2 0-.2-.1-.3-.2l-.5-1.2h-3.3l-.5 1.2c0 .1-.2.2-.3.2h-1c-.2 0-.3-.1-.2-.3l3.4-7.4c0-.1.1-.1.2-.1h.1c.1 0 .2.1.2.1l3.4 7.4c.1.1 0 .3-.2.3zm-2.8-19.3v1.9h-2v-1.9zm-2.1-.6v-2h2v2zm2.1 3.2v1.9h-2v-1.9zm0 2.5v1.8h-2v-1.8zm2.6-5.1v1.9h-2v-1.9zm-2-.6v-2h2v2zm2 3.2v1.9h-2v-1.9zm0 2.5v1.8h-2v-1.8zm2.7-5.1v1.9h-2v-1.9zm-2.1-.6v-2h2v2zm2.1 3.2v1.9h-2v-1.9zm0 2.5v1.8h-2v-1.8zm3.8 7.6c0 .1-.1.2-.2.2h-1.7v6.2c0 .1-.1.2-.2.2h-1c-.1 0-.2-.1-.2-.2v-6.2h-1.7c-.1 0-.2-.1-.2-.2v-.9c0-.1.1-.2.2-.2h4.8c.1 0 .2.1.2.2zm.9-5.8v.7h-2.4v-9.8c0-1.4-1.2-2.6-2.6-2.6h-14.6c-1.4 0-2.6 1.2-2.6 2.6v9.8h-2.4v-33.5c0-.4.3-.8.8-.8h.6c.4 0 .8.3.8.8v12.2c0 2.7 2.2 5 5 5h10.3c2.7 0 5-2.2 5-5v-12.2c0-.4.3-.8.8-.8h.6c.4 0 .8.3.8.8z" fill="url(#b)" fill-rule="nonzero"/><path d="m51.4 68.2-1.1 2.4h2.2z" fill="url(#c)"/><path d="m13.5 86.9c-8.7-9.4-13.5-21.7-13.5-34.5 0-12.7 4.8-25 13.5-34.4l1.9 1.8c-8.2 8.9-12.8 20.5-12.8 32.6s4.6 23.8 12.8 32.7z" fill="url(#e)"/><path d="m86.5 86.9-1.9-1.8c8.2-8.9 12.8-20.5 12.8-32.7 0-12.1-4.6-23.8-12.8-32.7l1.9-1.8c8.7 9.4 13.5 21.7 13.5 34.4 0 12.9-4.8 25.2-13.5 34.6z" fill="url(#f)"/><g fill="#4b556b" stroke="#4b556b" stroke-width=".2"><g transform="translate(16 1)"><path d="m1 11.7c-.1-.1 0-.2 0-.3l2.1-1.4c1.7-1.1 4-.7 5.1 1s.7 4-1 5.1l-2.1 1.4c-.1.1-.2 0-.3-.1zm5.4 3.4c1.1-.8 1.4-2.2.6-3.3s-2.2-1.4-3.3-.7l-1 .7 2.7 4zm4-1.4-.1-7.8c0-.1 0-.1.1-.2h.1.2l6 5c.1.1.1.3 0 .3l-.8.4c-.1.1-.2 0-.4-.1l-1-.8-2.8 1.3v1.2c0 .1-.1.3-.2.3l-.8.4c-.2.2-.3.1-.3 0zm3.1-4-1.9-1.6.1 2.5z" fill-rule="nonzero"/><path d="m16.2 4.8-1.5.5c-.1 0-.2 0-.3-.1l-.3-.8c0-.1 0-.2.1-.3l4.4-1.5c.1 0 .2 0 .3.1l.3.8c0 .1 0 .2-.1.3l-1.5.5 1.9 5.6c0 .1 0 .2-.1.3l-.9.3c-.1 0-.2 0-.3-.1z"/><g fill-rule="nonzero"><path d="m20.8 9.3 1.8-7.6c0-.1.1-.1.2-.2h.1c.1 0 .2 0 .2.1l4.6 6.3c.1.1 0 .3-.1.3l-.9.2c-.2 0-.2 0-.3-.1l-.7-1-3.1.6-.3 1.2c0 .1-.1.2-.3.3l-1 .1c-.2.1-.3 0-.2-.2zm4-3.1-1.5-2.1-.5 2.5zm5.9-5.5c0-.1.1-.2.2-.2h3c1.3 0 2.3 1 2.3 2.2 0 1-.6 1.8-1.5 2.1l1.5 2.7c.1.1 0 .3-.2.3h-1.1c-.1 0-.1 0-.2-.1l-1.4-2.7h-1.2v2.7c0 .1-.1.2-.2.2h-1c-.1 0-.2-.1-.2-.2zm3.2 3.1c.6 0 1-.5 1-1.1s-.5-1-1.1-1h-1.7v2.1c0 .1 1.8 0 1.8 0z"/><path d="m38.4.9c0-.1.1-.2.2-.2l1 .1c.1 0 .2.1.2.2l-.7 6.9c0 .1-.1.2-.2.2l-1-.1c-.1 0-.2-.1-.2-.2.1 0 .7-6.9.7-6.9zm7.3.7c.9.2 1.7.7 2.3 1.5.1.1.1.2 0 .3l-.9.6c-.1 0-.1 0-.2-.1-.4-.5-.9-.8-1.5-.9-1.3-.3-2.5.6-2.8 1.9s.5 2.6 1.8 2.8c.6.1 1.1 0 1.3 0l.2-.9-.8-.2c-.1 0-.2-.1-.2-.2l.2-.8c0-.1.1-.2.2-.2l2 .4c.1 0 .2.1.1.2l-.6 2.6c0 .1-.1.1-.1.1s-1.2.4-2.7.1c-2-.4-3.3-2.4-2.9-4.4.5-1.9 2.5-3.2 4.6-2.8-.1 0 0 0 0 0zm4.9 1.6c0-.1.2-.2.3-.1l.9.4c.1 0 .2.2.1.3l-1 2.6 3.2 1.2 1-2.6c0-.1.2-.2.3-.1l.9.3c.1 0 .2.2.1.3l-2.5 6.5c0 .1-.2.2-.3.1l-.9-.4c-.1 0-.2-.2-.1-.3l1-2.7-3.2-1.2-1 2.7c0 .1-.2.2-.3.1l-.8-.3c-.1 0-.2-.2-.1-.3-.1 0 2.4-6.5 2.4-6.5zm8.6 4.9-1.4-.8c-.1-.1-.1-.2-.1-.3l.4-.8c.1-.1.2-.1.3-.1l4 2.2c.1.1.1.2.1.3l-.4.8c-.1.1-.2.1-.3.1l-1.4-.8-2.9 5.2c-.1.1-.2.1-.3.1l-.9-.5c-.1-.1-.1-.2-.1-.3.2.1 3-5.1 3-5.1zm.9 6.3.7-.3c.2-.1.3 0 .3.1s.4 1.1.9 1.5c.4.3 1 .3 1.3-.1s.2-1-.4-1.8c-.6-.9-1-2-.3-3 .5-.8 1.7-1.2 3.1-.3.9.6 1.2 1.5 1.3 1.8.1.1 0 .3-.1.3l-.7.3c-.1.1-.3 0-.4-.1 0-.1-.4-1-.9-1.3-.5-.4-1-.2-1.2.1-.3.4-.2.9.3 1.7.6.9 1.2 2.1.4 3.2-.6.9-2 1.2-3.2.3-.9-.8-1.2-1.8-1.2-2.1-.1-.1-.1-.2.1-.3z"/></g></g><g fill-rule="nonzero" transform="translate(19 90)"><path d="m.8.4c0-.1.1-.2.2-.2h2.5c1.3 0 2.4 1.1 2.4 2.3 0 1.3-1.1 2.4-2.3 2.4h-1.3v2.5c0 .1-.1.2-.2.2h-1c-.1 0-.2-.1-.2-.2zm2.6 3.3c.6 0 1.1-.5 1.1-1.1s-.5-1-1.1-1h-1.2v2.1zm4-3.3c0-.1.1-.2.2-.2h3c1.3 0 2.3 1 2.3 2.3 0 1-.6 1.8-1.6 2.1l1.4 2.7c.1.1 0 .3-.2.3h-1.1c-.1 0-.1 0-.2-.1l-1.4-2.8h-1.2v2.7c0 .1-.1.2-.2.2h-1c-.1 0-.2-.1-.2-.2zm3.1 3.2c.6 0 1-.5 1-1.1s-.5-1-1-1h-1.7v2.1zm7.5-3.5c2.1 0 3.8 1.7 3.8 3.8 0 2.1-1.7 3.8-3.7 3.8-2.1 0-3.8-1.7-3.8-3.7-.1-2.1 1.5-3.8 3.7-3.9-.1 0-.1 0 0 0zm0 6.2c1.3 0 2.4-1.1 2.4-2.4s-1.1-2.4-2.4-2.4-2.4 1.1-2.4 2.4c0 1.4 1 2.4 2.4 2.4z"/><path d="m24.4 1.5h-1.6c-.1 0-.2-.1-.2-.2v-.9c0-.1.1-.2.2-.2h4.6c.1 0 .2.1.2.2v.9c0 .1-.1.2-.2.2h-1.6v5.9c0 .1-.1.2-.2.2h-1c-.1 0-.2-.1-.2-.2zm4.6-1.1c0-.1.1-.2.2-.2h4.3c.1 0 .2.1.2.2v.9c0 .1-.1.2-.2.2h-3.1v1.7h2.6c.1 0 .2.1.2.2v.9c0 .1-.1.2-.2.2h-2.6v1.8h3.1c.1 0 .2.1.2.2v.9c0 .1-.1.2-.2.2h-4.3c-.1 0-.2-.1-.2-.2zm9.7-.3c1.1 0 1.8.3 2.5 1 .1.1.1.2 0 .3l-.6.7c-.1.1-.2.1-.3 0-.4-.4-1-.6-1.6-.6-1.3 0-2.3 1.1-2.3 2.5 0 1.3 1 2.4 2.4 2.4.6 0 1.2-.2 1.6-.6.1-.1.2-.1.3 0l.7.7c.1.1.1.2 0 .3-.7.7-1.6 1-2.6 1-2.1 0-3.8-1.7-3.8-3.7-.1-2.3 1.6-4 3.7-4zm5.2 1.4h-1.6c-.1 0-.2-.1-.2-.2v-.9c0-.1.1-.2.2-.2h4.6c.1 0 .2.1.2.2v.9c0 .1-.1.2-.2.2h-1.6v5.9c0 .1-.1.2-.2.2h-1c-.1 0-.2-.1-.2-.2zm4.6-1.1c0-.1.1-.2.2-.2h4.3c.1 0 .2.1.2.2v.9c0 .1-.1.2-.2.2h-3.1v1.7h2.6c.1 0 .2.1.2.2v.9c0 .1-.1.2-.2.2h-2.6v1.8h3.1c.1 0 .2.1.2.2v.9c0 .1-.1.2-.2.2h-4.3c-.1 0-.2-.1-.2-.2z"/><path d="m55 .4c0-.1.1-.2.2-.2h2.5c2 0 3.7 1.7 3.7 3.7s-1.7 3.7-3.7 3.7h-2.5c-.1 0-.2-.1-.2-.2zm2.6 5.9c1.4 0 2.4-1 2.4-2.4s-1-2.4-2.4-2.4h-1.2v4.8z"/></g></g></g></svg>