<svg height="300" viewBox="0 0 300 300" width="300" xmlns="http://www.w3.org/2000/svg"><path d="m150 292c78.424722 0 142-63.575278 142-142s-63.575278-142-142-142-142 63.575278-142 142 63.575278 142 142 142zm0 8c-82.843 0-150-67.157-150-150s67.157-150 150-150 150 67.157 150 150-67.157 150-150 150zm-1-227.2869565c30.590859 0 56.793496 20.9738067 63.920222 50.1467185 22.206601 3.008039 39.079779 21.860926 39.079779 44.603282 0 24.979139-20.270861 45.25-45.25 45.25h-107.2500008c-29.5166391 0-53.5000002-23.983361-53.5000002-53.5 0-26.659704 19.6163732-49.068262 45.5978373-52.879938 11.5513257-20.5494637 33.3285137-33.6200625 57.4021627-33.6200625zm0 8c-21.779921 0-41.419174 12.1780515-51.3148435 31.1777375l-.991154 1.903016-2.1336361.226832c-22.9655554 2.441521-40.5603664 21.912501-40.5603664 45.192415 0 25.098361 20.4016391 45.5 45.5000002 45.5h107.2500008c20.560861 0 37.25-16.689139 37.25-37.25 0-19.534657-15.14111-35.579714-34.638762-36.929552l-3.055872-.21156-.592361-3.005365c-5.311119-26.946115-28.954676-46.6035235-56.713006-46.6035235zm-73 78.7869565c-2.209139 0-4-1.790861-4-4s1.790861-4 4-4h53.493243c2.209139 0 4 1.790861 4 4s-1.790861 4-4 4zm86-18c-2.209139 0-4-1.790861-4-4s1.790861-4 4-4h29c2.209139 0 4 1.790861 4 4s-1.790861 4-4 4zm0-15.5c-2.209139 0-4-1.790861-4-4s1.790861-4 4-4h10c2.209139 0 4 1.790861 4 4s-1.790861 4-4 4zm17 35.5c-2.209139 0-4-1.790861-4-4s1.790861-4 4-4h40c2.209139 0 4 1.790861 4 4s-1.790861 4-4 4zm2 20c-2.209139 0-4-1.790861-4-4s1.790861-4 4-4h18c2.209139 0 4 1.790861 4 4s-1.790861 4-4 4zm-88.28876-1c-2.209139 0-4-1.790861-4-4s1.790861-4 4-4h53.749871c2.209139 0 4 1.790861 4 4s-1.790861 4-4 4zm16.28876-39c-2.209139 0-4-1.790861-4-4s1.790861-4 4-4h18.610985c2.209139 0 4 1.790861 4 4s-1.790861 4-4 4zm31.75-31.75c0-2.209139 1.790861-4 4-4s4 1.790861 4 4v46.5c0 2.209139-1.790861 4-4 4s-4-1.790861-4-4zm18.5 43c0-2.209139 1.790861-4 4-4s4 1.790861 4 4v28.5c0 2.209139-1.790861 4-4 4s-4-1.790861-4-4z" fill="#ff9b26"/></svg>