<svg height="35" viewBox="0 0 35 35" width="35" xmlns="http://www.w3.org/2000/svg"><g fill="none"><circle cx="17.5" cy="17.5" fill="#4282f1" r="17.5"/><path d="m12.075 9.485h11.13v1.75h-11.13z" fill="#fff"/><g transform="translate(8.54 8.89)"><path d="m15.946595.02961h-13.97375c-.435295 0-.788095.35329-.788095.788585v2.62192h15.55036v-2.62192c.000035-.43533-.353255-.788585-.788515-.788585zm-10.760995 1.57766c-.208355 0-.37744-.169085-.37744-.37744s.169085-.37744.37744-.37744.37744.169085.37744.37744-.16912.37744-.37744.37744zm7.64736 0c-.208355 0-.37744-.169085-.37744-.37744s.169085-.37744.37744-.37744.37744.169085.37744.37744-.16912.37744-.37744.37744z" fill="#2762c8"/><path d="m17.902675 3.623305-1.192695 6.21964.48713 6.467755c.035735.474565-.33971.87969-.81627.87969h-14.84224c-.47607 0-.852005-.405125-.81627-.87969l.487655-6.467755-1.192695-6.21964c-.11221-.58478.336175-1.127805.932015-1.127805h16.0209c.59633 0 1.04468.543025.93247 1.127805z" fill="#d9d9d9"/><path d="m16.38084 17.190355h-14.84224c-.47607 0-.852005-.405125-.81627-.87969l.487655-6.467755h8.555225 6.944805l.48713 6.467755c.035735.474565-.33971.87969-.816305.87969z" fill="#fff"/><g fill="#4282f1" transform="translate(4.095 5.705)"><path d="m4.562985 2.51496c0-1.214045-1.01591-2.20171-2.264605-2.20171s-2.264605.987665-2.264605 2.20171h.75488c0-.79779.677285-1.44683 1.50976-1.44683s1.50976.64904 1.50976 1.44683-.677285 1.44683-1.50976 1.44683h-.70455v.75488h.70455c.832475 0 1.50976.64904 1.50976 1.44683s-.677285 1.44683-1.50976 1.44683-1.50976-.64904-1.50976-1.44683h-.75488c0 1.214045 1.01591 2.20171 2.264605 2.20171s2.264605-.987665 2.264605-2.20171c0-.758205-.39627-1.42807-.997955-1.82427.60172-.396165.997955-1.066065.997955-1.82427z"/><path d="m6.030115 1.59964.38724.64799 1.49226-.891695v6.631835h.754845v-7.96229z"/></g></g></g></svg>