<svg height="35" viewBox="0 0 35 35" width="35" xmlns="http://www.w3.org/2000/svg" xmlns:xlink="http://www.w3.org/1999/xlink"><defs><circle id="a" cx="17.5" cy="17.5" r="17.5"/><mask id="b" fill="#fff"><use fill="#fff" fill-rule="evenodd" xlink:href="#a"/></mask></defs><g fill="none" fill-rule="evenodd"><use fill="#1cb0b9" xlink:href="#a"/><path d="m18.173 8.75c0 .734-.612 1.346-1.346 1.346a1.358 1.358 0 0 1 -1.347-1.346c0-.734.612-1.346 1.346-1.346s1.346.612 1.346 1.346zm-1.01 2.692c-.95 0-1.682.732-1.682 1.683s.731 1.683 1.682 1.683c.952 0 1.683-.732 1.683-1.683s-.731-1.683-1.683-1.683zm0 4.712c-.911 0-1.682.771-1.682 1.683 0 .911.771 1.682 1.682 1.682.912 0 1.683-.771 1.683-1.682 0-.912-.771-1.683-1.683-1.683zm0 4.038c-.95 0-1.682.732-1.682 1.683s.731 1.683 1.682 1.683c.952 0 1.683-.732 1.683-1.683 0-.878-.731-1.683-1.683-1.683zm-.336 4.712c-.734 0-1.346.612-1.346 1.346s.612 1.346 1.346 1.346 1.346-.612 1.346-1.346-.612-1.346-1.346-1.346zm4.375-13.462c-.906 0-1.683.777-1.683 1.683s.777 1.683 1.683 1.683 1.683-.777 1.683-1.683-.777-1.683-1.683-1.683zm0 4.039c-.935 0-1.683.748-1.683 1.682 0 .935.748 1.683 1.683 1.683s1.683-.748 1.683-1.683c0-.934-.748-1.682-1.683-1.682zm0 4.711c-.906 0-1.683.777-1.683 1.683s.777 1.683 1.683 1.683 1.683-.777 1.683-1.683-.777-1.683-1.683-1.683zm4.375-4.711c-1.077 0-2.02.875-2.02 2.019 0 1.077.876 2.02 2.02 2.02s2.02-.876 2.02-2.02c-.068-1.144-.943-2.02-2.02-2.02zm-12.789-3.366a1.35 1.35 0 0 0 -1.346 1.347c0 .74.606 1.346 1.346 1.346a1.35 1.35 0 0 0 1.347-1.346 1.35 1.35 0 0 0 -1.347-1.347zm0 4.039c-.769 0-1.346.577-1.346 1.346 0 .77.577 1.346 1.346 1.346.77 0 1.347-.577 1.347-1.346 0-.77-.577-1.346-1.347-1.346zm0 4.038a1.35 1.35 0 0 0 -1.346 1.346c0 .74.606 1.347 1.346 1.347a1.35 1.35 0 0 0 1.347-1.347 1.35 1.35 0 0 0 -1.347-1.346zm-4.038-4.038a1.34 1.34 0 0 0 -1.346 1.346 1.34 1.34 0 0 0 1.346 1.346 1.34 1.34 0 0 0 1.346-1.346 1.34 1.34 0 0 0 -1.346-1.346z" fill="#fff" fill-rule="nonzero" mask="url(#b)"/></g></svg>