<svg height="300" viewBox="0 0 300 300" width="300" xmlns="http://www.w3.org/2000/svg" xmlns:xlink="http://www.w3.org/1999/xlink"><defs><path id="a" d="m11 5.5c0 3.037375-2.462625 5.5-5.5 5.5s-5.5-2.462625-5.5-5.5 2.462625-5.5 5.5-5.5 5.5 2.462625 5.5 5.5"/><path id="b" d="m39 5.5c0 3.037375-2.462625 5.5-5.5 5.5s-5.5-2.462625-5.5-5.5 2.462625-5.5 5.5-5.5 5.5 2.462625 5.5 5.5"/><path id="c" d="m11 5.5c0 3.037375-2.46125 5.5-5.5 5.5-3.037375 0-5.5-2.462625-5.5-5.5s2.462625-5.5 5.5-5.5c3.03875 0 5.5 2.462625 5.5 5.5"/><path id="d" d="m39 5.5c0 3.037375-2.462625 5.5-5.5 5.5s-5.5-2.462625-5.5-5.5 2.462625-5.5 5.5-5.5 5.5 2.462625 5.5 5.5"/><path id="e" d="m11 5.5c0 3.037375-2.462625 5.5-5.5 5.5s-5.5-2.462625-5.5-5.5 2.462625-5.5 5.5-5.5 5.5 2.462625 5.5 5.5"/><path id="f" d="m39 5.5c0 3.037375-2.462625 5.5-5.5 5.5s-5.5-2.462625-5.5-5.5 2.462625-5.5 5.5-5.5 5.5 2.462625 5.5 5.5"/><path id="g" d="m65.4915507 55c-2.2298848 5.5308253-9.1073071 9.5583949-17.2457754 9.5583949-8.1384682 0-15.0158905-4.0275696-17.2457753-9.5583949"/></defs><g fill="none" fill-rule="evenodd"><path d="m150 296c80.633861 0 146-65.366139 146-146s-65.366139-146-146-146-146 65.366139-146 146 65.366139 146 146 146z" fill="#fff" stroke="#ff9b26" stroke-width="8"/><g transform="translate(158 123)"><path d="m47.7575317 95.5161744c-26.3341945 0-47.7575317-21.4233372-47.7575317-47.7575317 0-26.3341944 21.4233372-47.7586427 47.7575317-47.7586427s47.7575317 21.4244483 47.7575317 47.7586427c0 26.3341945-21.4233372 47.7575317-47.7575317 47.7575317" fill="#fefefe" stroke="#ff9b26" stroke-width="7"/><g transform="translate(28 31)"><use fill="#4b556b" xlink:href="#a"/><use fill="#ff9b26" xlink:href="#a"/></g><g transform="translate(28 31)"><use fill="#4b556b" xlink:href="#b"/><use fill="#ff9b26" xlink:href="#b"/></g><path d="m64.4915507 64.5595059c-2.2298848-5.5308252-9.1073071-9.5595059-17.2457754-9.5595059-8.1384682 0-15.0158905 4.0286807-17.2457753 9.5595059" stroke="#ff9b26" stroke-linecap="round" stroke-width="7"/></g><g transform="translate(46 123)"><path d="m47.7575317 95.5161744c-26.3341945 0-47.7575317-21.4233372-47.7575317-47.7575317 0-26.3341944 21.4233372-47.7586427 47.7575317-47.7586427s47.7575317 21.4244483 47.7575317 47.7586427c0 26.3341945-21.4233372 47.7575317-47.7575317 47.7575317" fill="#fefefe" stroke="#ff9b26" stroke-width="7"/><g transform="translate(28 31)"><use fill="#4b556b" xlink:href="#c"/><use fill="#ff9b26" xlink:href="#c"/></g><g transform="translate(28 31)"><use fill="#4b556b" xlink:href="#d"/><use fill="#ff9b26" xlink:href="#d"/></g><path d="m30 59h35.0415222" stroke="#ff9b26" stroke-linecap="round" stroke-width="7"/></g><g transform="translate(101 60)"><path d="m47.7575317 95.5161744c-26.3341945 0-47.7575317-21.4244482-47.7575317-47.7575317 0-26.3341944 21.4233372-47.7586427 47.7575317-47.7586427s47.7575317 21.4244483 47.7575317 47.7586427c0 26.3330835-21.4233372 47.7575317-47.7575317 47.7575317" fill="#fefefe" stroke="#ff9b26" stroke-width="7"/><g transform="translate(29 31)"><use fill="#4b556b" xlink:href="#e"/><use fill="#ff9b26" xlink:href="#e"/></g><g transform="translate(29 31)"><use fill="#4b556b" xlink:href="#f"/><use fill="#ff9b26" xlink:href="#f"/></g><g stroke-linecap="round"><use stroke="#4b556b" stroke-width="5" xlink:href="#g"/><use stroke="#ff9b26" stroke-width="7" xlink:href="#g"/></g></g></g></svg>