<svg viewBox="0 0 500 500" xmlns="http://www.w3.org/2000/svg"><path d="m-.43-.87h500v500h-500z" fill="#14233c"/><path d="m384.89 301.21a12.54 12.54 0 0 1 -3.67 8.86l-56.12 56.12a5 5 0 0 1 -8.56-3.54v-125.76l67.58-67.19h.77z" fill="#e44d60"/><path d="m340.11 124.92a5 5 0 0 0 -7.09 0l-83.45 83.45h-1.16v94.18l1.16 2.48 67-67 68.35-68.35z" fill="#e4bd7a"/><path d="m114.24 301.21a12.54 12.54 0 0 0 3.67 8.86l56.09 56.12a5 5 0 0 0 8.55-3.54v-125.76l-67.55-67.19h-.78z" fill="#1c798a"/><path d="m166.12 124.92a5 5 0 0 0 -7.09 0l-44.79 44.78 68.35 68.35 67 67v-96.68z" fill="#77b691"/></svg>