<svg enable-background="new 0 0 2374 2374" viewBox="0 0 2374 2374" xmlns="http://www.w3.org/2000/svg"><circle cx="1289" cy="1205" fill="#ff9b26" r="1205"/><path d="m877.2 866.4 411.7-316.1 411.5 316.1-411.7 316.2z" fill="#fff" opacity=".4"/><path d="m825.3 1462 3-522.5 411.5 316.1-3 522.5z" fill="#fff" opacity=".7"/><path d="m1750.6 1462-3-522.5-411.5 316.1 3 522.5z" fill="#fff"/><g fill="#ff9b26"><path d="m1458 823.1c25.4 13.7 42.9 29.7 52.3 47.8 9.5 18.4 9.5 37.5.1 57s-28 37.7-55.3 54.5c-22.4 13.8-42.8 23.9-61.2 30.7-18.2 6.6-39.2 11.8-63.1 15.4l-84.7-57.4c23.9-3.9 46.9-9.5 68.9-17.1 22.4-7.7 41-16.3 55.6-25.8 12.7-8.3 19.5-16 20.1-23.2.7-7.1-3.2-13.1-11.5-18.1-5.2-3.1-10.8-4.9-17-5.6s-13.7-.5-22.7.7c-8.9 1.2-30 5.6-62.6 13.2-28.9 6.6-52.2 10.1-70.2 10.5-17.8.4-34.3-1.6-49.5-6-15-4.4-29.8-11.5-44.2-21.2-26.4-17.8-38.3-37.6-36.3-59.7 2-22 17.3-44.2 46.4-67.2 26.3-20.7 61-38.2 105-52.5l45.5 55.2c-40.5 11.6-69.5 24.2-87.8 38-9.3 7-14.2 13.3-14.6 18.8s2.1 10 7.8 13.5c6.1 3.8 14.3 5.2 24.7 4.2 10.5-1 34.9-6.6 74.3-16.9 38.8-10.4 71.8-14.8 98.6-13 27.3 1.6 54.5 9.7 81.4 24.2z"/><path d="m1149.6 1616.3-78.2-62.1 1.1-127.6-89.7-70.9-1.2 127.1-77.3-61.4 3.4-309.7 76.9 60.3-1.1 114.9 89.6 70.6 1-115.4 77.8 61z"/><path d="m1640.1 1451.4-183.4 145.9-.6-323 183-148.4.2 70.5-100.2 80.9.1 50.9 92.8-74.7.2 70.5-92.8 74.4.2 61.2 100.3-80.1z"/></g></svg>