<svg enable-background="new 0 0 32 32" viewBox="0 0 32 32" xmlns="http://www.w3.org/2000/svg"><path d="m551.9 591.6c6.7 0 10.3-5.5 10.3-10.3 0-.2 0-.3 0-.5.7-.5 1.3-1.2 1.8-1.9-.6.3-1.3.5-2.1.6.7-.4 1.3-1.2 1.6-2-.7.4-1.5.7-2.3.9-.7-.7-1.6-1.1-2.6-1.1-2 0-3.6 1.6-3.6 3.6 0 .3 0 .6.1.8-3-.2-5.7-1.6-7.5-3.8-.3.5-.5 1.2-.5 1.8 0 1.3.6 2.4 1.6 3-.6 0-1.2-.2-1.6-.5 0 1.8 1.2 3.2 2.9 3.6-.3.1-.6.1-1 .1-.2 0-.5 0-.7-.1.5 1.4 1.8 2.5 3.4 2.5-1.2 1-2.8 1.6-4.5 1.6-.3 0-.6 0-.9-.1 1.7 1.2 3.6 1.8 5.6 1.8" fill="#939393" transform="translate(-539.18 -568.86)"/></svg>